<svg width="132" height="103" viewBox="0 0 132 103" fill="none" xmlns="http://www.w3.org/2000/svg">
<path fill-rule="evenodd" clip-rule="evenodd" d="M47.1348 10.2242C43.543 8.53794 39.3576 10.8821 38.9192 14.8258L37.8778 24.1928C37.5939 26.7462 35.6614 28.8072 33.1315 29.2547L23.1806 31.0149C19.111 31.7347 17.0841 36.3636 19.3151 39.8425L23.4333 46.264C24.9479 48.6258 24.5514 51.7335 22.4923 53.6393L16.1075 59.5487C12.8883 62.5282 14.0222 67.8659 18.1745 69.2795L24.9532 71.5872C27.7547 72.541 29.3862 75.4538 28.7359 78.3409L27.1625 85.3266C26.1987 89.6058 30.1578 93.3611 34.3801 92.1726L42.7545 89.8154C45.4552 89.0552 48.3124 90.3406 49.535 92.8658L52.8593 99.7321C54.6602 103.452 59.6661 104.142 62.4059 101.048L69.1051 93.4819C70.8083 91.5584 73.5753 90.9873 75.9009 92.0791L84.4322 96.0845C88.024 97.7708 92.2093 95.4266 92.6478 91.4829L93.6892 82.1159C93.9731 79.5625 95.9056 77.5015 98.4355 77.054L108.386 75.2938C112.456 74.574 114.483 69.9451 112.252 66.4663L108.134 60.0447C106.619 57.6829 107.016 54.5752 109.075 52.6694L115.459 46.76C118.679 43.7805 117.545 38.4428 113.392 37.0292L106.614 34.7215C103.812 33.7677 102.181 30.8549 102.831 27.9678L104.404 20.9821C105.368 16.7029 101.409 12.9477 97.1868 14.1361L88.8125 16.4934C86.1117 17.2536 83.2546 15.9681 82.032 13.4429L78.7077 6.57662C76.9068 2.85689 71.9008 2.16714 69.1611 5.26121L62.4618 12.8268C60.7586 14.7503 57.9916 15.3214 55.666 14.2296L47.1348 10.2242Z" fill="#151515"/>
<path d="M39.9131 11.6276C40.2758 8.365 43.7383 6.42565 46.7098 7.82073L55.2411 11.8261C57.9683 13.1065 61.2131 12.4367 63.2105 10.181L69.9097 2.61544C72.1763 0.0557179 76.3177 0.62635 77.8076 3.70367L81.1319 10.5699C82.5657 13.5313 85.9163 15.0387 89.0834 14.1472L97.4578 11.79C100.951 10.8068 104.226 13.9135 103.429 17.4537L101.855 24.4394C101.093 27.8251 103.006 31.241 106.291 32.3594L113.07 34.6671C116.505 35.8366 117.443 40.2525 114.78 42.7174L108.395 48.6268C105.981 50.8617 105.516 54.5062 107.292 57.2758L111.41 63.6974C113.256 66.5754 111.579 70.4049 108.212 71.0004L98.2613 72.7605C95.2945 73.2853 93.0282 75.7023 92.6953 78.6967L91.6539 88.0637C91.2912 91.3263 87.8287 93.2656 84.8572 91.8705L76.3259 87.8652C73.5986 86.5848 70.3538 87.2546 68.3565 89.5102L61.6572 97.0758C59.3906 99.6356 55.2492 99.0649 53.7593 95.9876L50.435 89.1214C49.0013 86.16 45.6507 84.6526 42.4835 85.544L34.1092 87.9013C30.6161 88.8845 27.3407 85.7778 28.1381 82.2376L29.7115 75.2519C30.4741 71.8662 28.5608 68.4503 25.2755 67.3319L18.4968 65.0242C15.0616 63.8547 14.1235 59.4388 16.7868 56.9739L23.1715 51.0645C25.5862 48.8296 26.0512 45.1851 24.2751 42.4155L20.1568 35.9939C18.3111 33.1159 19.988 29.2864 23.3548 28.6909L33.3057 26.9307C36.2725 26.406 38.5387 23.989 38.8716 20.9946L39.9131 11.6276Z" fill="#18F2B2" stroke="#151515" stroke-width="2"/>
<path fill-rule="evenodd" clip-rule="evenodd" d="M31.5157 44.6563C31.3351 43.4163 31.5276 42.1974 32.2718 41.1363C33.1342 39.9067 34.5407 39.178 36.1364 38.7504C37.2509 38.4518 38.2772 38.2545 39.2041 38.1763C39.8529 38.1138 40.5041 38.0853 41.0692 38.1572C41.1748 37.7017 41.3958 37.2669 41.7446 36.8806C42.3649 36.1935 43.2522 35.8162 44.1139 35.5853C44.9376 35.3646 45.8109 35.2573 46.6324 35.4468C47.1603 35.56 47.6512 35.8177 48.0448 36.2326C48.4317 36.6403 48.654 37.1245 48.7786 37.5896C48.8407 37.8212 48.8776 38.0548 48.888 38.287C49.0057 38.1667 49.1294 38.0536 49.257 37.9473C49.7997 37.4882 50.4237 37.1659 51.1097 36.9821C51.6674 36.8326 52.2507 36.7426 52.8217 36.7848C53.0722 36.7983 53.3457 36.8314 53.6221 36.9032C53.8054 36.7545 53.9817 36.6443 54.1129 36.5688C54.6903 36.237 55.4435 35.975 56.2778 35.7514C56.692 35.6405 57.1281 35.5553 57.5465 35.5483C57.8461 35.5432 58.3285 35.5737 58.7961 35.8289C58.9732 35.6683 59.1618 35.5238 59.3442 35.3951L59.3518 35.3897C60.0731 34.8865 60.8696 34.5211 61.7299 34.2906C62.1922 34.1667 62.7639 34.0794 63.3462 34.2053C63.4126 34.2196 63.4782 34.2366 63.543 34.2562C63.7618 34.0506 64.0028 33.8636 64.2625 33.6953L64.271 33.6898L64.2797 33.6843C64.7231 33.4046 65.2088 33.2042 65.7183 33.0677C67.0855 32.7014 68.6098 32.7513 69.7424 33.88C70.6283 34.7436 71.1901 36.1028 71.5934 37.6079L72.9122 42.5297C73.0463 43.0302 72.9361 43.448 72.7932 43.7401L72.9122 44.1841C73.1261 44.9825 72.7183 45.5703 72.5482 45.7735C72.3582 46.0004 72.1443 46.148 72.0188 46.228C71.7487 46.4002 71.4188 46.5491 71.1002 46.6779L71.0869 46.6832L71.0736 46.6884C70.4261 46.937 69.7509 47.155 69.0487 47.3431C68.7109 47.4336 68.4082 47.5073 68.1492 47.5592C67.9197 47.6052 67.6217 47.6561 67.3375 47.6535L67.281 47.653L67.2246 47.6486C67.1045 47.6393 66.9625 47.6196 66.8091 47.5791C66.7674 47.6085 66.7296 47.6334 66.6975 47.6538C66.4274 47.8261 66.0975 47.975 65.7789 48.1037L65.767 48.1085L65.7551 48.1131C65.1164 48.3597 64.4454 48.5765 63.7433 48.7647C63.4056 48.8552 63.1029 48.9289 62.8439 48.9808C62.6143 49.0268 62.3163 49.0776 62.0322 49.075L61.9901 49.0747L61.9482 49.0721L61.9377 49.0715C61.7852 49.6305 61.5308 50.167 61.1631 50.6702C60.2088 51.976 58.6845 52.7749 56.9096 53.2505C56.0227 53.4881 55.2223 53.6564 54.5226 53.7398C53.8462 53.8204 53.1503 53.8365 52.5256 53.6861L52.5157 53.6837L52.5058 53.6812C52.1352 53.5871 51.0899 53.264 50.7913 52.1495C50.7697 52.069 50.7516 51.985 50.7364 51.8981C50.7031 51.9209 50.6726 51.9406 50.6461 51.9573C50.3749 52.1284 50.0426 52.2774 49.7192 52.4073L49.7075 52.412L49.6958 52.4165C49.0484 52.6652 48.3731 52.8831 47.6709 53.0713C47.3331 53.1618 47.0304 53.2354 46.7714 53.2874C46.5419 53.3334 46.2439 53.3842 45.9597 53.3816L45.9032 53.3811L45.8468 53.3767C45.5787 53.3559 45.2007 53.2834 44.8326 53.0427C44.7334 52.9779 44.6418 52.9052 44.5581 52.8258L44.5292 52.8621C44.1006 53.3962 43.5215 53.8335 42.8953 54.2027L42.8862 54.208L42.8771 54.2133C42.1804 54.6122 41.3145 54.9285 40.3379 55.1902C39.3543 55.4538 38.3827 55.6263 37.4246 55.7027C36.5487 55.7726 35.7189 55.7832 35.0673 55.6416C34.7865 55.5806 34.4446 55.4811 34.124 55.296C33.8067 55.1127 33.3314 54.7372 33.1518 54.0671C32.9512 53.3183 32.8557 52.5342 32.8544 51.722C32.8533 51.4835 32.8625 51.2266 32.8962 50.9697C32.8686 50.6732 32.8549 50.3724 32.8544 50.0676C32.8532 49.8205 32.8632 49.5536 32.9 49.2874C32.8786 49.2659 32.8574 49.2442 32.8364 49.2222L32.8305 49.2161L32.8246 49.2098C32.2651 48.6144 31.8931 47.8993 31.6825 47.1132C31.4604 46.2844 31.3871 45.4519 31.5157 44.6563ZM72.2774 32.0617C72.0478 32.4504 71.9563 32.8611 71.9205 33.1242L71.9186 33.1378L71.917 33.1514C71.8627 33.6064 71.888 34.0611 71.9701 34.506C71.947 34.6071 71.9312 34.6995 71.9205 34.7785L71.9186 34.7921L71.917 34.8057C71.8447 35.4118 71.9136 36.0172 72.0697 36.5998C72.2051 37.1052 72.3965 37.6315 72.6967 38.0735C72.8217 38.2577 73.0231 38.5191 73.3197 38.7302C73.4934 38.8538 73.7424 38.9868 74.0454 39.0516L74.3363 40.1373C74.8143 41.921 75.7028 43.6283 77.4393 44.2219L77.4465 44.2243L77.4538 44.2267C78.113 44.4453 78.7924 44.5444 79.4822 44.5094L79.5011 44.5085L79.52 44.5071C80.1312 44.462 80.8167 44.3269 81.5546 44.1292C81.9538 44.0222 82.3458 43.8899 82.6909 43.7163C83.0032 43.5591 83.464 43.277 83.7725 42.7762C83.9398 42.5046 84.0276 42.2228 84.0713 41.9648C84.1485 41.9996 84.2271 42.0325 84.3073 42.0635C85.078 42.371 85.8859 42.514 86.7171 42.4928C87.4962 42.4729 88.3358 42.3293 89.22 42.0923C91.0485 41.6024 92.5607 40.6777 93.5369 39.2047L93.5428 39.1957C94.3324 37.9872 94.5707 36.6079 94.406 35.163C94.5253 34.2084 94.4234 33.2026 94.1495 32.1806C93.9055 31.2698 93.5739 30.441 93.1253 29.7352C92.7135 29.0815 92.2134 28.4917 91.5926 28.0704C90.9767 27.6424 90.2758 27.4048 89.5435 27.3107C88.9061 27.2249 88.2743 27.2197 87.6544 27.3072C87.0936 27.376 86.473 27.5065 85.8032 27.686C84.0874 28.1457 82.637 28.963 81.6181 30.2366L81.6146 30.2409C81.3264 29.8829 80.7647 29.3945 79.9616 29.4343L79.7574 28.6722C79.6494 28.2691 79.4292 27.8744 79.0699 27.5619C78.7209 27.2583 78.3262 27.1064 77.9759 27.0363C77.3257 26.9062 76.6494 27.0216 76.0844 27.173C75.2899 27.3859 74.5307 27.7291 73.8082 28.1858L73.8017 28.19C73.4256 28.4302 73.0159 28.7489 72.7154 29.1749C72.3881 29.6389 72.1463 30.3096 72.3496 31.0682L72.4283 31.362C72.3453 31.5753 72.2893 31.8104 72.2774 32.0617ZM130.241 51.2513C130.279 51.3381 130.315 51.4348 130.343 51.5405C130.597 52.4871 130.09 53.2599 129.858 53.5759C129.556 53.9885 129.136 54.395 128.674 54.7867C128.222 55.1693 127.802 55.4961 127.418 55.7505C127.06 55.9879 126.629 56.2353 126.171 56.358C125.481 56.5429 124.909 56.3018 124.585 56.1085L124.56 56.1251C124.291 56.2987 123.963 56.4475 123.65 56.575L123.636 56.5805L123.622 56.5858C122.984 56.8324 122.313 57.0492 121.611 57.2373C121.268 57.3292 120.962 57.4038 120.701 57.4564C120.47 57.5028 120.169 57.5546 119.883 57.552L119.841 57.5516L119.8 57.5491C119.56 57.5347 119.223 57.4816 118.881 57.2974C118.569 57.59 118.208 57.8261 117.857 58.0206C116.952 58.5231 116.019 58.9068 115.059 59.164C114.175 59.4009 113.346 59.5493 112.592 59.5757L112.585 59.5759C111.913 59.5966 111.265 59.5536 110.674 59.4105L110.645 59.4034L110.616 59.3953C110.339 59.3173 110.069 59.2202 109.809 59.1039C109.723 59.4771 109.53 59.7459 109.426 59.8703C109.236 60.0972 109.022 60.2448 108.896 60.3248C108.626 60.497 108.296 60.646 107.978 60.7747L107.965 60.7801L107.951 60.7852C107.304 61.0338 106.629 61.2518 105.926 61.4399C105.589 61.5304 105.286 61.6041 105.027 61.656C104.797 61.702 104.499 61.7529 104.215 61.7503L104.159 61.7498L104.102 61.7454C103.982 61.7361 103.84 61.7164 103.687 61.6759C103.645 61.7054 103.607 61.7302 103.575 61.7506C103.305 61.9229 102.975 62.0718 102.657 62.2005L102.645 62.2053L102.633 62.2099C101.994 62.4566 101.323 62.6734 100.621 62.8615C100.283 62.952 99.9805 63.0257 99.7215 63.0776C99.492 63.1236 99.194 63.1745 98.9098 63.1719L98.8678 63.1715L98.8259 63.169C98.5638 63.1532 98.1846 63.0911 97.8105 62.8614C97.7071 62.798 97.6108 62.7257 97.5224 62.6456C97.0943 63.1769 96.5172 63.6123 95.8933 63.9801L95.8843 63.9855L95.8752 63.9907C95.1785 64.3896 94.3126 64.706 93.336 64.9677C92.3523 65.2312 91.3807 65.4037 90.4227 65.4801C89.5468 65.55 88.717 65.5606 88.0654 65.419C87.9788 65.4002 87.8864 65.3778 87.7906 65.3502L87.771 65.3751C87.4052 65.8336 86.9064 66.1765 86.4281 66.4421C85.523 66.9445 84.5899 67.3283 83.6301 67.5855C82.746 67.8224 81.9167 67.9707 81.163 67.9971L81.1559 67.9974C80.4837 68.018 79.836 67.9751 79.245 67.832L79.2157 67.8249L79.1867 67.8167C78.9084 67.7385 78.6382 67.641 78.3767 67.5242C78.2873 67.9173 78.0767 68.1951 77.9743 68.3134C77.7828 68.5348 77.5686 68.6792 77.4426 68.7578C77.1703 68.9277 76.8356 69.077 76.5073 69.208L76.4958 69.2126L76.4842 69.2171C75.828 69.4677 75.1484 69.6869 74.4461 69.875C74.1089 69.9654 73.8076 70.0387 73.5519 70.0895C73.3379 70.132 73.0201 70.1881 72.7141 70.1755L72.6679 70.1736L72.6219 70.1691C72.5264 70.1599 72.4187 70.1436 72.3037 70.1159C72.2881 70.1261 72.2735 70.1355 72.2598 70.1441C71.9886 70.3151 71.6563 70.4642 71.3329 70.5941L71.3199 70.5994L71.3067 70.6044C70.6505 70.855 69.9709 71.0742 69.2686 71.2623C68.9265 71.354 68.6216 71.4283 68.3638 71.4798C68.1491 71.5226 67.8282 71.5798 67.5206 71.5671L67.4744 71.5652L67.4284 71.5607C67.1533 71.534 66.7775 71.4499 66.4171 71.1985C66.0253 70.9252 65.7679 70.534 65.6536 70.1072L65.3719 69.0559C65.3619 69.3311 65.2845 69.5666 65.1926 69.7528L65.3121 70.1987C65.543 71.0603 65.053 71.6699 64.9008 71.838C64.7074 72.0515 64.493 72.1914 64.366 72.2683C64.0902 72.4352 63.7481 72.5852 63.4052 72.7199L63.3941 72.7242L63.383 72.7284C62.6991 72.9857 62.0009 73.2097 61.2888 73.4005C60.9463 73.4923 60.6408 73.5668 60.3813 73.6188C60.1581 73.6635 59.8483 73.7177 59.5526 73.7105L59.4925 73.709L59.4326 73.7032C59.1575 73.6764 58.7816 73.5924 58.4213 73.341C58.0294 73.0676 57.7721 72.6765 57.6577 72.2497L57.1919 70.5113C57.205 70.6165 57.2145 70.7206 57.2197 70.8232C57.2316 71.059 57.2283 71.3976 57.1253 71.7582C57.1738 72.0019 57.2078 72.2437 57.2197 72.4776C57.2376 72.8309 57.2212 73.4152 56.8865 73.9584C56.578 74.4592 56.1172 74.7413 55.8049 74.8985C55.4598 75.0721 55.0678 75.2044 54.6686 75.3114C53.9307 75.5091 53.2452 75.6443 52.6339 75.6893L52.6151 75.6907L52.5962 75.6917C51.9064 75.7267 51.227 75.6275 50.5678 75.409L50.5605 75.4066L50.5533 75.4041C49.9623 75.2021 49.4695 74.8711 49.0577 74.4519C48.8952 74.9613 48.6313 75.4471 48.2555 75.8964C47.3346 76.9974 45.9051 77.6767 44.2807 78.112C42.4688 78.5975 40.8649 78.8492 39.6145 78.6831L39.6004 78.6812L39.5864 78.6791C39.5244 78.6697 39.4598 78.659 39.3933 78.6465C39.2034 78.8684 38.9911 79.0131 38.8661 79.0919C38.595 79.263 38.2626 79.412 37.9392 79.5419L37.9276 79.5466L37.9158 79.5511C37.2684 79.7998 36.5931 80.0177 35.8909 80.2059C35.5532 80.2964 35.2505 80.37 34.9915 80.422C34.7619 80.468 34.4639 80.5188 34.1798 80.5162L34.1232 80.5157L34.0668 80.5113C33.9816 80.5047 33.8854 80.4929 33.7818 80.4721C33.5809 80.6978 33.2988 80.9004 32.9035 81.0063L27.0389 82.5777C26.5361 82.7125 25.9481 82.852 25.4785 82.8406L25.4345 82.8395L25.3906 82.8361C25.1225 82.8153 24.7444 82.7428 24.3764 82.5021C23.9695 82.2361 23.6893 81.8379 23.5677 81.3841L23.4482 80.9384C23.2241 81.1981 22.8958 81.4614 22.4321 81.5856L22.2207 81.6422L22.2208 81.8531C22.2155 83.0398 21.3064 83.7061 20.8155 83.9949C20.232 84.3381 19.4757 84.6043 18.6422 84.8276C18.132 84.9643 17.4281 84.9907 16.7837 84.573C16.4934 84.9276 16.1407 85.1684 15.8937 85.3137C15.3102 85.6569 14.5539 85.9231 13.7204 86.1464C13.1723 86.2933 12.4008 86.3128 11.7196 85.7914L11.6642 85.749L11.6125 85.702C11.2686 85.3894 10.993 84.9802 10.8592 84.481C10.84 84.4095 10.8245 84.3337 10.8118 84.257C10.3822 84.0582 10.0974 83.7391 9.98189 83.5962L9.97164 83.5835L9.96164 83.5707C9.62706 83.1399 9.43729 82.626 9.31548 82.1714C9.1558 81.5755 9.16379 80.9789 9.28818 80.4083C9.12851 79.726 9.18453 79.045 9.3793 78.4052C9.24245 78.1227 9.14588 77.8311 9.07338 77.5606C8.9137 76.9646 8.9217 76.368 9.04609 75.7974C8.88583 75.1127 8.94285 74.4291 9.13934 73.7874C9.23299 73.4722 9.3732 73.1149 9.60104 72.7902C9.82817 72.4666 10.2 72.0986 10.757 71.9282L10.7585 71.8514C10.7726 70.7891 11.4415 70.0764 12.0415 69.6667C12.6382 69.2593 13.4018 68.9745 14.2141 68.7569C14.6202 68.6481 15.2211 68.5505 15.8401 68.7629C15.9976 68.817 16.1421 68.8859 16.2738 68.9671C16.4856 68.7129 16.7297 68.5074 16.9633 68.3479C17.56 67.9405 18.3236 67.6557 19.136 67.4381C19.542 67.3293 20.143 67.2317 20.7619 67.4441C21.0203 67.5328 21.2438 67.6615 21.4329 67.8185C21.6858 67.5285 21.9946 67.2825 22.2883 67.0769C23.0275 66.5464 23.8743 66.1684 24.8001 65.9204C25.5612 65.7164 26.7615 65.5369 27.7154 66.2949L27.7328 66.3087L27.7498 66.323C28.0547 66.5789 28.3475 66.9507 28.4817 67.4516L29.9256 72.8402C30.139 72.7728 30.3397 72.7108 30.5277 72.6543L30.21 71.4688C30.074 70.961 30.1618 70.5163 30.3061 70.1731L30.2431 69.9379C29.7946 69.5474 29.487 69.0263 29.3283 68.4338C29.1805 67.8824 29.1745 67.3188 29.3307 66.7884C29.3299 66.7854 29.3291 66.7824 29.3283 66.7794C29.0697 65.8143 29.2454 64.8118 29.9646 64.0152C30.5849 63.3281 31.4722 62.9508 32.3339 62.7199C33.1576 62.4992 34.031 62.3919 34.8525 62.5814C35.3804 62.6946 35.8712 62.9523 36.2648 63.3672C36.6517 63.7749 36.874 64.2591 36.9986 64.7242C37.1084 65.1339 37.1395 65.5497 37.0844 65.9533C37.4856 65.4394 38.0466 65.0073 38.6376 64.6354L38.6446 64.631C39.3531 64.1903 40.1501 63.8626 41.0151 63.6308C41.7743 63.4274 42.4499 63.2752 43.03 63.1844C43.5681 63.0888 44.0749 63.0254 44.5099 63.0252C44.8065 63.023 45.1098 63.0386 45.4048 63.0855C45.4284 62.8934 45.477 62.7121 45.5423 62.5443L45.4636 62.2505C45.2603 61.4919 45.5021 60.8212 45.8294 60.3571C46.1299 59.9311 46.5395 59.6125 46.9156 59.3722L46.9222 59.368C47.6447 58.9113 48.4039 58.5681 49.1983 58.3552C49.7634 58.2038 50.4397 58.0885 51.0899 58.2185C51.4402 58.2886 51.8349 58.4406 52.1839 58.7442C52.3683 58.9045 52.516 59.0865 52.6307 59.2801C52.819 58.8561 53.2106 58.3249 53.9407 58.1293L62.5858 55.8128C62.7158 55.778 62.8435 55.7579 62.9679 55.7506C63.031 55.6519 63.0924 55.5709 63.142 55.5098C63.4092 55.1808 63.7563 54.9034 64.0846 54.6743C64.806 54.171 65.6024 53.8056 66.4627 53.5751C66.9026 53.4573 67.3717 53.3735 67.8327 53.3847C68.2847 53.3956 68.8762 53.5031 69.3909 53.9177C69.7204 54.1805 69.996 54.5527 70.1229 55.0264L70.3547 55.8915C70.6638 55.7499 70.9872 55.6341 71.3235 55.544C72.6701 55.1832 74.1559 55.2749 75.2487 56.4198C75.2573 56.4287 75.266 56.4376 75.2745 56.4465C75.2868 56.4593 75.299 56.4722 75.3111 56.4852C75.4475 56.233 75.6084 55.99 75.7957 55.7578C76.3363 55.076 76.9971 54.5236 77.7646 54.1057C78.4874 53.7121 79.327 53.3994 80.2569 53.1503C81.7406 52.7527 83.2043 52.6275 84.4667 53.0826L84.4743 53.0854C84.5484 52.3213 84.7984 51.5859 85.2699 50.9138C86.1323 49.6842 87.5388 48.9554 89.1345 48.5279C90.2489 48.2293 91.2753 48.0319 92.2021 47.9537C93.0019 47.8766 93.8054 47.8514 94.4466 48.0019C94.7079 48.0573 95.0296 48.1503 95.3357 48.327C95.6446 48.5054 96.0782 48.8556 96.2676 49.4601C96.9789 48.9705 97.7624 48.6138 98.6075 48.3874C99.0698 48.2635 99.6415 48.1762 100.224 48.3021C100.29 48.3164 100.356 48.3334 100.421 48.353C100.639 48.1474 100.88 47.9604 101.14 47.7921L101.149 47.7866L101.157 47.7811C101.601 47.5014 102.086 47.3011 102.596 47.1646C103.963 46.7982 105.487 46.8481 106.62 47.9767C106.657 48.0124 106.693 48.049 106.728 48.0864C106.867 47.826 107.032 47.5755 107.225 47.3364C107.766 46.6545 108.426 46.1021 109.194 45.6842C109.917 45.2906 110.756 44.978 111.686 44.7288C112.795 44.4317 113.893 44.2867 114.904 44.4225C114.919 44.1687 114.983 43.9406 115.065 43.7455L114.969 43.3869C114.74 42.5342 115.143 41.8594 115.384 41.5445C115.648 41.201 115.993 40.9166 116.315 40.6859L116.323 40.6803C117.041 40.1737 117.841 39.8083 118.709 39.5758C119.28 39.4226 119.964 39.307 120.621 39.4413C120.974 39.5138 121.37 39.6692 121.718 39.9753C122.076 40.2896 122.294 40.6846 122.402 41.0868L122.596 41.8116C123.383 41.6374 124.269 41.5994 125.213 41.6526C125.758 41.6834 126.326 41.7613 126.823 41.954C127.303 42.14 128.04 42.5695 128.285 43.4839C128.414 43.9621 128.359 44.4524 128.314 44.7587C128.299 44.8548 128.282 44.9544 128.262 45.0573C128.27 45.0839 128.278 45.1108 128.285 45.1382C128.414 45.6165 128.359 46.1068 128.314 46.413C128.267 46.7255 128.189 47.0756 128.09 47.4523C128.416 47.6997 128.703 47.9259 128.948 48.1304C129.234 48.3693 129.495 48.6038 129.703 48.8261C129.808 48.9373 129.921 49.0685 130.023 49.2147C130.113 49.344 130.261 49.5771 130.343 49.8861C130.484 50.4106 130.391 50.8817 130.241 51.2513ZM55.3844 67.4489C55.4515 67.4687 55.5193 67.4926 55.5875 67.5211C56.0905 67.7315 56.403 68.1046 56.5811 68.4362C56.6252 68.5182 56.6663 68.6044 56.7048 68.6935L56.2447 66.9763L55.6215 67.1433C55.5764 67.1554 55.5319 67.1656 55.488 67.174C55.4598 67.2635 55.4257 67.3559 55.3844 67.4489Z" fill="#151515"/>
<path fill-rule="evenodd" clip-rule="evenodd" d="M47.8414 40.8037L49.9523 48.6818C49.9837 48.799 49.7004 48.9776 49.1025 49.2178C48.5124 49.4444 47.8924 49.6448 47.2426 49.8189C46.6034 49.9902 46.1808 50.0749 45.9748 50.073C45.7765 50.0576 45.6588 49.9806 45.6217 49.8421L43.5879 42.2517C43.5251 42.0173 43.762 41.7083 44.2986 41.3248C44.8431 40.9277 45.4722 40.6335 46.1859 40.4423C47.1554 40.1825 47.7072 40.303 47.8414 40.8037ZM44.542 37.1833C45.2451 36.9949 45.8223 36.9544 46.2735 37.0618C46.7326 37.1558 47.0349 37.4744 47.1805 38.0177C47.4374 38.9765 46.8201 39.6557 45.3287 40.0554C43.8372 40.455 42.963 40.1754 42.7061 39.2166C42.4492 38.2578 43.0612 37.5801 44.542 37.1833ZM81.1263 40.8768C81.8081 40.6941 82.2207 40.4865 82.3639 40.254C82.5071 40.0215 82.4831 39.5484 82.2919 38.8346C82.1948 38.4724 82.1007 38.2065 82.0096 38.0368C81.9184 37.8671 81.777 37.8079 81.5852 37.8593C81.4041 37.9079 81.1753 37.9063 80.8989 37.8548C80.6196 37.7926 80.4415 37.6177 80.3644 37.3301L79.5808 34.4058L80.5236 34.1531C80.7154 34.1017 80.8256 33.8952 80.8543 33.5336C80.8908 33.1584 80.8391 32.7098 80.6992 32.1878C80.4852 31.3888 80.2396 31.0264 79.9626 31.1007L78.7801 31.4175L78.1593 29.1004C78.0308 28.621 77.4818 28.5112 76.5124 28.771C75.8945 28.9365 75.2878 29.2076 74.6921 29.5841C74.1072 29.9578 73.8589 30.3098 73.9474 30.64L74.4655 32.5736L73.9542 32.7106C73.7411 32.7677 73.6096 32.9799 73.5596 33.3473C73.5174 33.7011 73.5534 34.0911 73.6676 34.5173C73.7817 34.9434 73.9143 35.2676 74.0651 35.4898C74.216 35.7119 74.3501 35.8073 74.4672 35.7759L75.2662 35.5618L75.9342 38.0547C76.3767 39.706 77.0567 40.6884 77.9742 41.002C78.4504 41.1599 78.9251 41.2268 79.3982 41.2028C79.8685 41.1682 80.4445 41.0595 81.1263 40.8768ZM86.6747 39.1846C87.2871 39.1689 87.9927 39.0541 88.7917 38.84C90.3365 38.4261 91.4585 37.6915 92.1577 36.6364C92.8541 35.5706 92.9853 34.2281 92.5514 32.6088C92.3373 31.8098 92.0627 31.1469 91.7274 30.6201C91.3893 30.0827 91.0322 29.6874 90.6561 29.4343C90.2906 29.1782 89.8478 29.0171 89.3277 28.951C88.8182 28.882 88.3326 28.8808 87.8709 28.9474C87.4063 29.0034 86.8598 29.1156 86.2312 29.284C84.7611 29.6779 83.6539 30.3399 82.9098 31.2701C82.116 32.2706 81.9474 33.6232 82.4042 35.3277C82.918 37.2453 83.7538 38.4258 84.9117 38.8691C85.4746 39.0951 86.0623 39.2002 86.6747 39.1846ZM87.8053 36.5009C87.7108 36.4464 87.5748 36.2373 87.3975 35.8738C87.2202 35.5102 87.0359 34.9716 86.8446 34.2578C86.6534 33.544 86.5436 32.9854 86.5154 32.5819C86.4844 32.1677 86.5015 31.912 86.5667 31.8145C86.6291 31.7065 86.7242 31.6353 86.8521 31.6011C86.9906 31.564 87.1263 31.6018 87.2593 31.7146C87.3489 31.7934 87.4325 31.9137 87.5102 32.0756C87.5985 32.2346 87.6961 32.4711 87.803 32.785C87.9177 33.0853 88.0536 33.5285 88.2106 34.1144C88.3648 34.6897 88.4559 35.1791 88.4841 35.5826C88.523 35.9832 88.5098 36.2323 88.4445 36.3297C88.3899 36.4242 88.2934 36.4901 88.1549 36.5272C88.0271 36.5614 87.9105 36.5527 87.8053 36.5009ZM69.9953 38.0361L71.3141 42.9579C71.3455 43.0751 71.0676 43.2523 70.4803 43.4896C69.8902 43.7162 69.2702 43.9166 68.6204 44.0907C67.9812 44.262 67.5586 44.3467 67.3525 44.3448C67.1543 44.3294 67.0366 44.2525 66.9995 44.114L65.6379 39.0324C65.5094 38.553 65.4039 38.2444 65.3213 38.1067C65.2494 37.9661 65.1818 37.8415 65.1184 37.7329C64.9896 37.5504 64.8293 37.4849 64.6376 37.5363C64.3393 37.6162 64.2287 37.8 64.3057 38.0877L65.9928 44.3837C66.0242 44.5009 65.7462 44.6782 65.159 44.9154C64.5795 45.1392 63.9649 45.3382 63.315 45.5123C62.6758 45.6836 62.2532 45.7683 62.0472 45.7664C61.8383 45.7538 61.7153 45.6783 61.6782 45.5398L59.5673 37.6617C59.5073 37.438 59.751 37.1329 60.2983 36.7465C60.8562 36.3572 61.4761 36.0712 62.1579 35.8885C62.8397 35.7059 63.2761 35.8002 63.4669 36.1715L63.7991 36.8361L63.911 36.8061C64.0544 36.1054 64.4714 35.5313 65.1621 35.0836C65.4454 34.9049 65.7735 34.7656 66.1463 34.6657C67.2223 34.3774 68.0338 34.5082 68.5808 35.0582C69.1356 35.5946 69.6071 36.5872 69.9953 38.0361ZM56.0537 45.3342L56.302 46.261C56.3762 46.538 56.3399 46.7647 56.1931 46.9411C56.0569 47.1146 55.7331 47.2698 55.2217 47.4069C54.721 47.541 54.0373 47.61 53.1706 47.6139C52.8949 47.6079 52.7358 47.6105 52.6931 47.6219C52.512 47.6705 52.3963 48.0269 52.346 48.6912C52.3063 49.3527 52.3207 49.8113 52.3892 50.067C52.432 50.2268 52.6065 50.3456 52.9128 50.4233C53.6086 50.5909 54.798 50.4491 56.4813 49.9981C58.0686 49.5728 59.1839 48.92 59.8272 48.0397C60.4706 47.1594 60.6238 46.0907 60.287 44.8336L58.4929 38.138C58.4329 37.9143 58.3781 37.752 58.3282 37.6512C58.2755 37.5397 58.1894 37.4315 58.0699 37.3265C57.8637 37.1534 57.409 37.161 56.7059 37.3494C55.1292 37.7719 54.3475 38.2211 54.3609 38.6971L54.3841 39.3588L54.2562 39.3931L54.2017 39.2536C54.0992 39.0413 53.8588 38.8259 53.4805 38.6076C53.2943 38.509 53.0392 38.4518 52.7152 38.4358C52.3884 38.4092 51.9959 38.4573 51.5378 38.5801C51.0797 38.7028 50.6739 38.9143 50.3205 39.2145C49.9748 39.5012 49.7365 39.8049 49.6055 40.1255C49.2604 40.9258 49.2535 41.9439 49.5846 43.1797C49.8729 44.2557 50.1918 45.0837 50.5413 45.6637C50.767 46.0371 51.0139 46.3192 51.2819 46.51C51.5471 46.6901 51.8823 46.8116 52.2873 46.8743C52.6923 46.9371 53.1559 46.8985 53.6779 46.7586C54.2105 46.6159 54.666 46.4196 55.0444 46.1698C55.4334 45.9172 55.6712 45.7393 55.7578 45.6361C55.8415 45.5224 55.8975 45.4331 55.9258 45.3685L56.0537 45.3342ZM55.3767 44.2139C55.325 44.3191 55.2405 44.3874 55.1233 44.4188C54.9529 44.4645 54.7644 44.3152 54.558 43.9709C54.3622 43.6237 54.1815 43.1412 54.0159 42.5233C53.6591 41.1916 53.6831 40.4715 54.0879 40.3631C54.2797 40.3117 54.4269 40.3921 54.5294 40.6044L55.4115 43.8963C55.44 44.0028 55.4284 44.1087 55.3767 44.2139ZM42.0549 51.1233C42.5874 50.8093 42.982 50.4924 43.2388 50.1724C43.4956 49.8523 43.6824 49.5054 43.7992 49.1316C43.9896 48.5211 43.9991 47.8962 43.8278 47.257C43.6651 46.6498 43.4052 46.1485 43.0481 45.7532C42.691 45.358 42.3038 45.0849 41.8866 44.9341C41.4665 44.7726 41.0245 44.657 40.5605 44.5872C40.1043 44.5039 39.689 44.4667 39.3146 44.4757C38.948 44.4712 38.6332 44.447 38.3703 44.4033C38.1045 44.3489 37.9488 44.2365 37.9031 44.0661C37.8546 43.885 37.8988 43.7304 38.0358 43.6023C38.1834 43.4714 38.4863 43.3446 38.9444 43.2219C39.4131 43.0963 40.0404 43.0937 40.8263 43.2143C41.0864 43.2474 41.2377 43.2582 41.2803 43.2468C41.5254 43.1811 41.6901 42.7944 41.7745 42.0867C41.8696 41.3762 41.8429 40.7439 41.6944 40.1899C41.6516 40.0301 41.449 39.9132 41.0866 39.839C40.732 39.7513 40.154 39.7463 39.3527 39.824C38.5486 39.8911 37.6192 40.0659 36.5645 40.3485C33.7414 41.1049 32.6467 42.6657 33.2804 45.0307C33.4288 45.5847 33.6787 46.0486 34.0301 46.4226C34.3787 46.786 34.7601 47.0377 35.1745 47.1779C35.5889 47.3181 36.0241 47.4298 36.4803 47.5131C36.9472 47.5935 37.3707 47.6399 37.7508 47.6522C38.128 47.6539 38.4524 47.6926 38.7239 47.7683C38.9925 47.8333 39.1497 47.9511 39.1953 48.1215C39.241 48.292 39.2128 48.4423 39.1106 48.5724C39.0056 48.6919 38.74 48.8087 38.3139 48.9229C37.8878 49.0371 37.2154 49.0631 36.2967 49.001C35.378 48.9388 34.8974 48.9135 34.8548 48.9249C34.6204 48.9877 34.505 49.3669 34.5087 50.0624C34.5095 50.7473 34.5899 51.388 34.7497 51.9846C34.7954 52.155 35.0183 52.2837 35.4184 52.3706C35.8184 52.4575 36.4433 52.4671 37.2929 52.3993C38.1425 52.3315 39.0148 52.1777 39.9096 51.9379C40.8152 51.6953 41.5303 51.4237 42.0549 51.1233ZM123.844 52.8607C123.875 52.9779 123.603 53.1537 123.026 53.3881C122.447 53.6119 121.832 53.8108 121.182 53.985C120.532 54.1591 120.104 54.2452 119.898 54.2433C119.689 54.2308 119.566 54.1553 119.529 54.0168L116.566 42.9587C116.504 42.7243 116.74 42.4153 117.277 42.0317C117.824 41.6453 118.444 41.3593 119.137 41.1738C120.117 40.9112 120.673 41.0249 120.804 41.5149L122.405 47.4914L122.613 47.4358C122.471 44.8591 122.522 43.538 122.767 43.4724C123.385 43.3068 124.169 43.2508 125.12 43.3044C126.07 43.3579 126.593 43.5605 126.687 43.9121C126.756 44.1677 126.674 44.7149 126.442 45.5535C126.21 46.3921 125.926 47.1018 125.591 47.6826C127.602 49.0962 128.654 49.9734 128.745 50.3143C128.831 50.6339 128.45 51.1526 127.603 51.8704C126.757 52.5883 126.136 53 125.742 53.1057C125.55 53.157 125.287 52.9822 124.951 52.5812C124.612 52.1696 124.196 51.5332 123.703 50.672L123.42 51.2787L123.844 52.8607ZM113.915 53.1748C113.254 53.3518 112.831 53.094 112.646 52.4016L113.173 52.2603C116.198 51.4496 117.444 50.0482 116.911 48.056C116.408 46.181 114.809 45.6046 112.114 46.3268C111.272 46.5523 110.563 46.8224 109.985 47.1371C109.407 47.4519 108.917 47.8627 108.517 48.3698C107.702 49.376 107.554 50.8486 108.073 52.7875C108.207 53.2882 108.391 53.7586 108.623 54.1988C108.783 54.4985 108.963 54.7643 109.162 54.9964C109.358 55.2178 109.623 55.4381 109.955 55.6572C110.299 55.8735 110.668 56.0372 111.063 56.1482C111.466 56.2458 111.956 56.2857 112.534 56.268C113.122 56.2474 113.821 56.1286 114.631 55.9116C115.451 55.6918 116.259 55.3612 117.054 54.9198C117.849 54.4784 118.191 54.0499 118.08 53.6344C118.003 53.3468 117.718 52.9436 117.225 52.4249C116.732 51.9061 116.384 51.6739 116.182 51.7281C116.15 51.7367 115.861 51.9569 115.314 52.3888C114.765 52.81 114.298 53.072 113.915 53.1748ZM112.271 51.1317L111.988 50.0771C111.78 49.2994 111.862 48.8606 112.235 48.7607C112.565 48.6722 112.816 48.9475 112.987 49.5867C113.082 49.9383 113.06 50.2637 112.924 50.563C112.798 50.8594 112.58 51.049 112.271 51.1317ZM106.873 52.1329L108.192 57.0547C108.223 57.1719 107.945 57.3491 107.358 57.5864C106.768 57.8131 106.148 58.0134 105.498 58.1876C104.859 58.3588 104.436 58.4435 104.23 58.4416C104.032 58.4262 103.914 58.3493 103.877 58.2108L102.515 53.1292C102.387 52.6498 102.281 52.3412 102.199 52.2035C102.127 52.0629 102.059 51.9383 101.996 51.8297C101.867 51.6473 101.707 51.5817 101.515 51.6331C101.217 51.7131 101.106 51.8968 101.183 52.1845L102.87 58.4806C102.902 58.5978 102.624 58.775 102.036 59.0123C101.457 59.236 100.842 59.435 100.193 59.6091C99.5533 59.7804 99.1307 59.8651 98.9247 59.8632C98.7158 59.8507 98.5928 59.7752 98.5557 59.6367L96.4447 51.7586C96.3848 51.5348 96.6285 51.2298 97.1758 50.8433C97.7337 50.454 98.3536 50.1681 99.0354 49.9854C99.7172 49.8027 100.154 49.897 100.344 50.2683L100.677 50.9329L100.788 50.9029C100.932 50.2023 101.349 49.6281 102.04 49.1804C102.323 49.0017 102.651 48.8624 103.024 48.7625C104.1 48.4742 104.911 48.605 105.458 49.155C106.013 49.6914 106.485 50.6841 106.873 52.1329ZM95.0528 60.9007C95.5852 60.5867 95.9799 60.2697 96.2367 59.9497C96.4935 59.6297 96.6802 59.2828 96.797 58.909C96.9874 58.2985 96.997 57.6736 96.8257 57.0344C96.663 56.4272 96.4031 55.9259 96.0459 55.5306C95.6888 55.1353 95.3017 54.8623 94.8844 54.7115C94.4644 54.55 94.0223 54.4343 93.5583 54.3646C93.1021 54.2813 92.6868 54.2441 92.3124 54.2531C91.9458 54.2486 91.6311 54.2244 91.3682 54.1807C91.1024 54.1263 90.9467 54.0139 90.901 53.8434C90.8525 53.6623 90.8967 53.5078 91.0336 53.3797C91.1813 53.2488 91.4841 53.122 91.9422 52.9992C92.411 52.8736 93.0383 52.8711 93.8242 52.9917C94.0843 53.0247 94.2356 53.0356 94.2782 53.0242C94.5232 52.9585 94.6879 52.5718 94.7723 51.8641C94.8674 51.1536 94.8407 50.5213 94.6923 49.9673C94.6495 49.8075 94.4468 49.6905 94.0844 49.6164C93.7298 49.5287 93.1518 49.5237 92.3506 49.6014C91.5464 49.6684 90.617 49.8433 89.5623 50.1258C86.7392 50.8823 85.6445 52.443 86.2782 54.8081C86.4266 55.362 86.6766 55.826 87.028 56.2C87.3765 56.5633 87.758 56.8151 88.1723 56.9553C88.5867 57.0954 89.022 57.2072 89.4782 57.2905C89.945 57.3709 90.3685 57.4173 90.7486 57.4296C91.1259 57.4313 91.4502 57.47 91.7217 57.5457C91.9904 57.6107 92.1475 57.7284 92.1932 57.8989C92.2389 58.0694 92.2106 58.2196 92.1085 58.3498C92.0035 58.4693 91.7379 58.5861 91.3118 58.7003C90.8856 58.8145 90.2132 58.8405 89.2945 58.7784C88.3759 58.7162 87.8952 58.6909 87.8526 58.7023C87.6182 58.7651 87.5029 59.1442 87.5066 59.8398C87.5074 60.5246 87.5877 61.1654 87.7476 61.7619C87.7932 61.9324 88.0161 62.0611 88.4162 62.148C88.8163 62.2349 89.4411 62.2444 90.2908 62.1766C91.1404 62.1088 92.0126 61.9551 92.9075 61.7153C93.813 61.4726 94.5281 61.2011 95.0528 60.9007ZM81.2163 60.823C81.4019 61.5155 81.8249 61.7732 82.4854 61.5962C82.8689 61.4935 83.3354 61.2315 83.8847 60.8102C84.4313 60.3783 84.7205 60.1581 84.7525 60.1495C84.9549 60.0953 85.3026 60.3276 85.7955 60.8463C86.2885 61.3651 86.5735 61.7682 86.6506 62.0559C86.7619 62.4714 86.42 62.8998 85.6248 63.3413C84.8296 63.7827 84.0219 64.1133 83.2016 64.3331C82.3919 64.55 81.693 64.6688 81.1048 64.6894C80.5272 64.7071 80.037 64.6672 79.634 64.5697C79.2389 64.4586 78.8696 64.2949 78.5262 64.0787C78.1934 63.8595 77.9289 63.6393 77.7325 63.4178C77.5333 63.1858 77.3536 62.9199 77.1934 62.6203C76.9613 62.1801 76.7781 61.7096 76.644 61.2089C76.1245 59.27 76.2722 57.7975 77.0873 56.7912C77.4881 56.2842 77.9775 55.8733 78.5554 55.5586C79.1333 55.2439 79.8431 54.9738 80.6847 54.7483C83.38 54.0261 84.9789 54.6025 85.4813 56.4774C86.0151 58.4696 84.7692 59.871 81.7436 60.6817L81.2163 60.823ZM80.5592 58.4985L80.8418 59.5532C81.1507 59.4704 81.3683 59.2808 81.4944 58.9844C81.6311 58.6851 81.6524 58.3597 81.5582 58.0082C81.3869 57.369 81.1362 57.0936 80.8059 57.1821C80.4331 57.282 80.3508 57.7208 80.5592 58.4985ZM71.2544 62.1906L72.4447 66.6331C72.4818 66.7716 72.5942 66.8499 72.7817 66.8682C72.9665 66.8758 73.3784 66.7939 74.0176 66.6227C74.6675 66.4485 75.2928 66.2467 75.8935 66.0172C76.5021 65.7743 76.7907 65.5942 76.7593 65.477L75.4405 60.5552C75.0523 59.1063 74.5914 58.1108 74.0579 57.5687C73.5323 57.013 72.7634 56.8708 71.7513 57.142C71.0482 57.3304 70.4412 57.6643 69.9302 58.1437C69.6563 58.3998 69.4747 58.6597 69.3855 58.9234L69.2737 58.9534L69.154 57.8037L68.5246 55.4546C68.4989 55.3587 68.4427 55.2767 68.3559 55.2086C68.0928 54.9937 67.6043 54.9818 66.8906 55.1731C66.2088 55.3558 65.5889 55.6418 65.0309 56.0311C64.473 56.4203 64.224 56.7268 64.2839 56.9506L67.2512 68.0247C67.2883 68.1631 67.4007 68.2415 67.5883 68.2598C67.773 68.2674 68.1903 68.1841 68.8401 68.01C69.49 67.8358 70.1153 67.634 70.7161 67.4045C71.314 67.1644 71.5972 66.9857 71.5658 66.8686L69.8788 60.5725C69.8017 60.2848 69.8697 60.1125 70.0828 60.0554C70.3278 59.9897 70.5308 60.1294 70.6918 60.4745C70.8527 60.8196 71.0403 61.3916 71.2544 62.1906ZM63.7138 68.9725C63.7452 69.0897 63.4406 69.2741 62.8001 69.5256C62.1674 69.7637 61.5208 69.9712 60.8603 70.1482C60.2104 70.3223 59.7878 70.407 59.5924 70.4022C59.4049 70.384 59.2925 70.3056 59.2554 70.1671L57.4142 63.2958L55.193 63.8909C55.0758 63.9223 54.9347 63.8003 54.7695 63.5248C54.6044 63.2494 54.4433 62.8187 54.2863 62.2328C54.1264 61.6362 54.0476 61.0864 54.0499 60.5834C54.0492 60.0697 54.1555 59.7844 54.3685 59.7273L63.0137 57.4108C63.1735 57.368 63.32 57.4886 63.4532 57.7726C63.597 58.0538 63.7446 58.4767 63.8959 59.0413C64.0472 59.6059 64.1313 60.1543 64.1483 60.6864C64.1652 61.2185 64.0725 61.5117 63.8701 61.5659L61.8726 62.1011L63.7138 68.9725ZM54.2401 72.059C54.9219 71.8763 55.3345 71.6688 55.4777 71.4363C55.6209 71.2038 55.5969 70.7306 55.4057 70.0169C55.3086 69.6547 55.2145 69.3887 55.1234 69.219C55.0322 69.0493 54.8908 68.9902 54.699 69.0416C54.5179 69.0901 54.2892 69.0886 54.0127 69.0371C53.7335 68.9749 53.5553 68.8 53.4782 68.5123L52.6946 65.588L53.6374 65.3354C53.8292 65.284 53.9394 65.0775 53.9681 64.7158C54.0046 64.3407 53.9529 63.8921 53.8131 63.3701C53.599 62.5711 53.3534 62.2087 53.0764 62.2829L51.8939 62.5998L51.2731 60.2827C51.1446 59.8033 50.5957 59.6934 49.6262 59.9532C49.0083 60.1188 48.4016 60.3898 47.806 60.7664C47.221 61.1401 46.9728 61.492 47.0613 61.8223L47.5793 63.7558L47.068 63.8929C46.8549 63.95 46.7234 64.1622 46.6734 64.5295C46.6312 64.8834 46.6672 65.2734 46.7814 65.6995C46.8955 66.1256 47.0281 66.4498 47.179 66.672C47.3298 66.8942 47.4639 66.9896 47.5811 66.9582L48.3801 66.7441L49.048 69.237C49.4905 70.8882 50.1705 71.8707 51.088 72.1843C51.5642 72.3422 52.0389 72.4091 52.512 72.3851C52.9823 72.3504 53.5583 72.2417 54.2401 72.059ZM43.8522 74.8596C42.0838 75.3335 40.7437 75.5098 39.8321 75.3887C39.3681 75.3189 39.1132 75.1988 39.0676 75.0284C38.9505 74.5916 38.9414 74.046 39.04 73.3915C39.1387 72.7371 39.2839 72.3842 39.4757 72.3328C39.5822 72.3043 39.9705 72.3258 40.6405 72.3975C41.3212 72.4663 41.8693 72.445 42.2848 72.3337C42.7109 72.2195 42.9808 72.1187 43.0943 72.0311C43.2186 71.9408 43.2607 71.821 43.2207 71.6719C43.1779 71.5121 43.0386 71.4181 42.8026 71.39C42.5639 71.3512 42.2804 71.3586 41.9523 71.4123C41.6241 71.466 41.2607 71.4948 40.8622 71.4989C40.4743 71.5 40.1006 71.4689 39.741 71.4053C39.3814 71.3418 39.0494 71.1682 38.745 70.8844C38.4378 70.5899 38.2313 70.2456 38.1257 69.8514C38.0172 69.4466 37.948 69.1454 37.9179 68.948C37.885 68.7398 37.896 68.44 37.9509 68.0485C38.0137 67.6435 38.1535 67.292 38.3706 66.9941C38.5983 66.6933 38.9808 66.3738 39.5182 66.0357C40.0663 65.6947 40.7079 65.4258 41.4429 65.2288C42.178 65.0319 42.7977 64.8944 43.302 64.8163C43.8142 64.7248 44.2187 64.6792 44.5157 64.6795C44.8233 64.677 45.0805 64.6994 45.2873 64.7468C45.6391 64.8238 45.8406 64.9582 45.892 65.15C46.0033 65.5654 45.9827 66.0848 45.8299 66.708C45.6772 67.3313 45.5103 67.6672 45.3292 67.7157C45.1588 67.7614 44.7563 67.7722 44.1218 67.7481C43.4845 67.7133 43.0274 67.733 42.7504 67.8072C42.303 67.9271 42.1135 68.1149 42.182 68.3706C42.2248 68.5304 42.4068 68.6129 42.7279 68.6182C43.0569 68.61 43.4458 68.5914 43.8948 68.5625C44.3437 68.5335 44.8027 68.5419 45.2716 68.5875C45.7484 68.6196 46.1902 68.7981 46.5969 69.123C47.0143 69.445 47.3058 69.915 47.4714 70.5329C48.0309 72.6209 46.8245 74.0632 43.8522 74.8596ZM38.1721 75.8164L36.0612 67.9383C35.927 67.4376 35.3752 67.3171 34.4058 67.5769C33.692 67.7681 33.0629 68.0623 32.5185 68.4594C31.9818 68.8429 31.7449 69.1519 31.8077 69.3863L33.8416 76.9767C33.8787 77.1152 33.9963 77.1922 34.1946 77.2076C34.4006 77.2095 34.8232 77.1248 35.4624 76.9535C36.1123 76.7794 36.7323 76.579 37.3224 76.3524C37.9203 76.1122 38.2035 75.9336 38.1721 75.8164ZM34.4934 64.1964C34.0421 64.089 33.4649 64.1295 32.7618 64.3179C31.281 64.7147 30.6691 65.3924 30.926 66.3512C31.1829 67.31 32.0571 67.5896 33.5485 67.19C35.04 66.7903 35.6573 66.1111 35.4003 65.1523C35.2548 64.609 34.9524 64.2904 34.4934 64.1964ZM26.6104 79.3254C26.0778 79.4681 25.7137 79.5371 25.5184 79.5324C25.3201 79.517 25.2024 79.44 25.1653 79.3015L22.5021 69.362C22.4393 69.1276 22.6868 68.8158 23.2448 68.4265C23.7999 68.0266 24.4609 67.7239 25.228 67.5183C25.9098 67.3356 26.3957 67.3596 26.6859 67.5901C26.789 67.6767 26.8548 67.7732 26.8834 67.8797L28.7802 74.9589C30.0571 74.5254 31.0258 74.2201 31.6863 74.0432C31.91 73.9832 32.1175 74.3101 32.3087 75.0239C32.4971 75.727 32.6119 76.3471 32.653 76.8842C32.6942 77.4212 32.6349 77.7111 32.4751 77.754L26.6104 79.3254ZM12.7249 82.8233C12.8685 82.9333 13.0575 82.9569 13.2919 82.8941C14.8579 82.4744 15.6421 82.0131 15.6443 81.5101L15.6436 80.0374L17.3055 79.5921C17.3115 80.424 17.3359 80.9199 17.3787 81.0797C17.4215 81.2395 17.5109 81.3811 17.6467 81.5045C17.7903 81.6145 17.9793 81.6381 18.2137 81.5753C19.7797 81.1556 20.5639 80.6943 20.5661 80.1913L20.5654 78.7186L22.0036 78.3332C22.206 78.279 22.3634 78.0142 22.4758 77.5387C22.5854 77.0527 22.593 76.6338 22.4988 76.2823C22.3133 75.5898 22.082 75.2807 21.805 75.3549L20.5586 75.6889L20.563 74.0435L21.7615 73.7224C21.9639 73.6681 22.1213 73.4033 22.2337 72.9279C22.3433 72.4418 22.3509 72.023 22.2567 71.6714C22.0712 70.979 21.8399 70.6698 21.5629 70.744L20.5722 71.0095C20.571 69.9822 20.5618 69.4366 20.5446 69.3727C20.4447 68.9998 20.1178 68.8876 19.5638 69.036C18.083 69.4328 17.3398 69.9403 17.3341 70.5584C17.3241 71.0749 17.3221 71.515 17.3283 71.8787L15.6504 72.3283C15.6491 71.301 15.64 70.7554 15.6228 70.6915C15.5229 70.3186 15.196 70.2064 14.642 70.3548C13.1612 70.7516 12.418 71.2591 12.4123 71.8772C12.4023 72.3937 12.4003 72.8338 12.4064 73.1975L11.2559 73.5058C11.0322 73.5658 10.8545 73.8189 10.7229 74.2652C10.5884 74.7009 10.5712 75.1051 10.6711 75.478C10.7681 75.8402 10.8864 76.1111 11.0258 76.2907C11.1624 76.4596 11.2893 76.5284 11.4065 76.497L12.3973 76.2315L12.3929 77.8769L11.498 78.1167C11.2743 78.1766 11.0966 78.4298 10.965 78.8761C10.8305 79.3117 10.8133 79.716 10.9132 80.0889C11.0102 80.4511 11.1285 80.722 11.2679 80.9016C11.4045 81.0705 11.5314 81.1392 11.6486 81.1078L12.3837 80.9109C12.3897 81.7428 12.4141 82.2387 12.4569 82.3985C12.4997 82.5583 12.589 82.6999 12.7249 82.8233ZM15.6368 77.0077L15.6412 75.3623L17.3191 74.9127L17.3147 76.5581L15.6368 77.0077Z" fill="white"/>
</svg>
