<svg width="161" height="126" viewBox="0 0 161 126" fill="none" xmlns="http://www.w3.org/2000/svg">
<path fill-rule="evenodd" clip-rule="evenodd" d="M57.917 13.0745C53.5747 11.0358 48.515 13.8698 47.9849 18.6374L46.7259 29.9614C46.3827 33.0483 44.0465 35.5399 40.9881 36.0809L28.9582 38.2088C24.0384 39.079 21.5879 44.675 24.2851 48.8806L29.2637 56.6438C31.0947 59.499 30.6153 63.256 28.1261 65.56L20.4074 72.704C16.5156 76.3059 17.8864 82.7588 22.9063 84.4678L31.1011 87.2576C34.488 88.4106 36.4603 91.932 35.6742 95.4223L33.772 103.867C32.6068 109.041 37.3931 113.581 42.4976 112.144L52.6215 109.294C55.8865 108.375 59.3406 109.929 60.8186 112.982L64.8374 121.283C67.0146 125.779 73.0664 126.613 76.3786 122.873L84.4775 113.727C86.5365 111.401 89.8815 110.711 92.693 112.031L103.007 116.873C107.349 118.912 112.409 116.078 112.939 111.31L114.198 99.986C114.541 96.8991 116.877 94.4075 119.936 93.8665L131.965 91.7386C136.885 90.8684 139.336 85.2724 136.639 81.0667L131.66 73.3036C129.829 70.4484 130.308 66.6913 132.798 64.3874L140.516 57.2434C144.408 53.6414 143.037 47.1885 138.017 45.4796L129.822 42.6897C126.436 41.5367 124.463 38.0154 125.249 34.5251L127.152 26.0799C128.317 20.9067 123.531 16.3668 118.426 17.8036L108.302 20.6533C105.037 21.5724 101.583 20.0184 100.105 16.9655L96.0862 8.66475C93.909 4.16789 87.8572 3.33403 84.5451 7.07453L76.4462 16.2208C74.3871 18.5461 71.0421 19.2366 68.2306 17.9166L57.917 13.0745Z" fill="#151515"/>
<path d="M48.9788 14.7479C49.4332 10.6614 53.7701 8.23227 57.492 9.97966L67.8056 14.8218C71.0187 16.3303 74.8417 15.5412 77.1949 12.8837L85.2937 3.73747C88.1327 0.531325 93.32 1.24607 95.1861 5.10052L99.205 13.4013C100.894 16.8903 104.842 18.6662 108.573 17.6159L118.697 14.7662C123.072 13.5347 127.175 17.426 126.176 21.8602L124.274 30.3054C123.375 34.2943 125.63 38.3187 129.5 39.6364L137.695 42.4262C141.998 43.891 143.173 49.4221 139.837 52.5095L132.118 59.6535C129.273 62.2866 128.726 66.5804 130.818 69.8434L135.797 77.6066C138.109 81.2114 136.008 86.008 131.791 86.7539L119.761 88.8818C116.266 89.5 113.596 92.3476 113.204 95.8755L111.945 107.199C111.49 111.286 107.154 113.715 103.432 111.968L93.118 107.126C89.9049 105.617 86.082 106.406 83.7288 109.064L75.6299 118.21C72.7909 121.416 67.6036 120.701 65.7375 116.847L61.7187 108.546C60.0295 105.057 56.082 103.281 52.3506 104.331L42.2266 107.181C37.8514 108.413 33.7488 104.521 34.7476 100.087L36.6497 91.642C37.5482 87.6531 35.2941 83.6287 31.4234 82.311L23.2285 79.5211C18.9258 78.0563 17.7508 72.5253 21.0866 69.4379L28.8053 62.2939C31.6502 59.6608 32.198 55.367 30.1054 52.104L25.1268 44.3408C22.815 40.7359 24.9154 35.9394 29.1324 35.1935L41.1622 33.0656C44.6576 32.4473 47.3276 29.5998 47.7198 26.0719L48.9788 14.7479Z" fill="#F4BA2C" stroke="#151515" stroke-width="2"/>
<path fill-rule="evenodd" clip-rule="evenodd" d="M39.0346 54.7002C38.8163 53.201 39.049 51.7275 39.9487 50.4448C40.9913 48.9583 42.6916 48.0773 44.6207 47.5604C45.968 47.1994 47.2088 46.9608 48.3293 46.8663C49.1137 46.7907 49.9009 46.7563 50.5841 46.8432C50.7117 46.2926 50.9789 45.767 51.4006 45.2999C52.1505 44.4693 53.2232 44.0131 54.2649 43.734C55.2607 43.4672 56.3165 43.3375 57.3096 43.5665C57.9478 43.7034 58.5412 44.015 59.0171 44.5165C59.4847 45.0094 59.7536 45.5947 59.9042 46.157C59.9793 46.437 60.0239 46.7194 60.0365 47.0001C60.1787 46.8547 60.3283 46.718 60.4826 46.5895C61.1387 46.0345 61.893 45.6448 62.7224 45.4226C63.3965 45.2419 64.1017 45.1331 64.792 45.1841C65.0948 45.2004 65.4254 45.2404 65.7596 45.3272C65.9812 45.1474 66.1943 45.0142 66.353 44.923C67.051 44.5219 67.9615 44.2051 68.9702 43.9348C69.4709 43.8007 69.9981 43.6977 70.5039 43.6892C70.8662 43.6831 71.4492 43.7199 72.0146 44.0285C72.2287 43.8343 72.4567 43.6597 72.6772 43.504L72.6864 43.4976C73.5584 42.8892 74.5213 42.4474 75.5613 42.1687C76.1202 42.019 76.8113 41.9134 77.5153 42.0656C77.5956 42.083 77.6749 42.1035 77.7532 42.1272C78.0178 41.8786 78.3091 41.6526 78.623 41.4491L78.6334 41.4424L78.6438 41.4358C79.1799 41.0977 79.767 40.8555 80.3829 40.6904C82.0358 40.2476 83.8786 40.3079 85.2478 41.6724C86.3188 42.7165 86.998 44.3595 87.4856 46.1792L89.0799 52.1293C89.242 52.7343 89.1087 53.2394 88.9361 53.5925L89.0799 54.1293C89.3385 55.0944 88.8455 55.8051 88.6398 56.0508C88.4102 56.325 88.1515 56.5034 87.9998 56.6002C87.6733 56.8084 87.2744 56.9884 86.8893 57.144L86.8732 57.1505L86.8571 57.1567C86.0744 57.4573 85.258 57.7208 84.4092 57.9483C84.0008 58.0577 83.6349 58.1468 83.3218 58.2095C83.0443 58.2651 82.684 58.3266 82.3405 58.3235L82.2721 58.3229L82.204 58.3176C82.0588 58.3063 81.8871 58.2825 81.7017 58.2336C81.6512 58.2692 81.6055 58.2992 81.5668 58.3239C81.2402 58.5321 80.8414 58.7122 80.4562 58.8678L80.4419 58.8736L80.4275 58.8791C79.6554 59.1773 78.8442 59.4394 77.9954 59.6668C77.5871 59.7762 77.2211 59.8653 76.908 59.9281C76.6305 59.9837 76.2703 60.0452 75.9267 60.0421L75.8759 60.0416L75.8252 60.0386L75.8126 60.0378C75.6281 60.7135 75.3206 61.3621 74.8761 61.9705C73.7224 63.5491 71.8797 64.5149 69.7339 65.0899C68.6617 65.3772 67.6941 65.5806 66.8483 65.6814C66.0305 65.7788 65.1892 65.7983 64.4341 65.6165L64.422 65.6136L64.41 65.6105C63.9621 65.4968 62.6984 65.1061 62.3374 63.7589C62.3113 63.6615 62.2894 63.56 62.271 63.455C62.2307 63.4825 62.1939 63.5063 62.1619 63.5265C61.834 63.7333 61.4323 63.9135 61.0413 64.0705L61.0272 64.0762L61.013 64.0816C60.2303 64.3822 59.4139 64.6457 58.5651 64.8732C58.1567 64.9826 57.7908 65.0717 57.4777 65.1344C57.2002 65.19 56.8399 65.2515 56.4964 65.2484L56.428 65.2478L56.3599 65.2425C56.0357 65.2173 55.5787 65.1297 55.1337 64.8387C55.0138 64.7603 54.903 64.6724 54.8019 64.5764L54.767 64.6203C54.2488 65.266 53.5488 65.7946 52.7917 66.241L52.7808 66.2475L52.7697 66.2538C51.9275 66.7361 50.8807 67.1185 49.7 67.4348C48.5109 67.7535 47.3363 67.962 46.1781 68.0544C45.1192 68.1389 44.116 68.1517 43.3282 67.9805C42.9888 67.9068 42.5755 67.7864 42.1879 67.5627C41.8043 67.3412 41.2297 66.8871 41.0126 66.077C40.7701 65.1719 40.6546 64.2239 40.6531 63.242C40.6517 62.9536 40.6629 62.6431 40.7036 62.3325C40.6703 61.9741 40.6536 61.6105 40.6531 61.242C40.6516 60.9432 40.6637 60.6206 40.7081 60.2988C40.6823 60.2728 40.6567 60.2465 40.6313 60.22L40.6241 60.2125L40.617 60.205C39.9407 59.4852 39.4909 58.6207 39.2363 57.6703C38.9678 56.6684 38.8792 55.662 39.0346 54.7002ZM88.3124 39.4742C88.0348 39.9442 87.9242 40.4406 87.8809 40.7587L87.8787 40.7751L87.8767 40.7916C87.8111 41.3417 87.8417 41.8913 87.9409 42.4292C87.913 42.5514 87.894 42.6631 87.8809 42.7587L87.8787 42.7751L87.8767 42.7916C87.7893 43.5243 87.8726 44.2561 88.0613 44.9605C88.225 45.5714 88.4564 46.2077 88.8193 46.742C88.9705 46.9647 89.2139 47.2807 89.5725 47.5359C89.7825 47.6854 90.0836 47.8462 90.4498 47.9244L90.8015 49.237C91.3794 51.3934 92.4535 53.4574 94.5528 54.1749L94.5615 54.1779L94.5703 54.1808C95.3673 54.445 96.1885 54.5649 97.0225 54.5226L97.0453 54.5214L97.0681 54.5197C97.8071 54.4653 98.6358 54.3019 99.5279 54.0629C100.01 53.9336 100.484 53.7736 100.902 53.5637C101.279 53.3737 101.836 53.0326 102.209 52.4272C102.411 52.0989 102.518 51.7583 102.57 51.4463C102.664 51.4884 102.759 51.5282 102.856 51.5657C103.787 51.9374 104.764 52.1103 105.769 52.0846C106.711 52.0605 107.726 51.8869 108.795 51.6005C111.005 51.0082 112.833 49.8903 114.014 48.1095L114.021 48.0987C114.975 46.6377 115.263 44.9702 115.064 43.2235C115.208 42.0694 115.085 40.8535 114.754 39.618C114.459 38.5168 114.058 37.5149 113.516 36.6617C113.018 35.8713 112.414 35.1583 111.663 34.649C110.919 34.1316 110.071 33.8444 109.186 33.7307C108.415 33.6269 107.651 33.6207 106.902 33.7264C106.224 33.8095 105.474 33.9673 104.664 34.1843C102.59 34.7401 100.836 35.7281 99.6046 37.2678L99.6004 37.2731C99.252 36.8402 98.573 36.2497 97.602 36.2978L97.3552 35.3766C97.2246 34.8893 96.9585 34.4121 96.5241 34.0344C96.1021 33.6673 95.625 33.4836 95.2014 33.3989C94.4155 33.2417 93.5978 33.3811 92.9147 33.5641C91.9543 33.8215 91.0365 34.2364 90.1631 34.7885L90.1551 34.7936C89.7005 35.084 89.2052 35.4693 88.842 35.9843C88.4463 36.5453 88.154 37.3561 88.3997 38.2732L88.4949 38.6283C88.3945 38.8862 88.3268 39.1704 88.3124 39.4742ZM158.386 62.673C158.432 62.7779 158.476 62.8949 158.51 63.0226C158.816 64.167 158.203 65.1012 157.923 65.4833C157.557 65.982 157.05 66.4735 156.491 66.947C155.946 67.4096 155.437 67.8046 154.973 68.1121C154.541 68.3991 154.019 68.6983 153.465 68.8466C152.631 69.0701 151.94 68.7786 151.549 68.545L151.518 68.5651C151.193 68.7748 150.797 68.9548 150.417 69.109L150.401 69.1156L150.385 69.122C149.613 69.4201 148.801 69.6822 147.953 69.9096C147.538 70.0207 147.168 70.1109 146.852 70.1744C146.574 70.2305 146.21 70.2932 145.865 70.29L145.814 70.2896L145.763 70.2865C145.474 70.2692 145.066 70.2049 144.653 69.9823C144.276 70.336 143.839 70.6214 143.415 70.8566C142.321 71.464 141.193 71.9279 140.033 72.2389C138.964 72.5253 137.961 72.7046 137.05 72.7365L137.041 72.7368C136.229 72.7618 135.446 72.7098 134.731 72.5369L134.696 72.5283L134.661 72.5184C134.326 72.4242 134 72.3067 133.685 72.1662C133.582 72.6173 133.348 72.9423 133.222 73.0927C132.992 73.367 132.734 73.5454 132.582 73.6421C132.256 73.8504 131.857 74.0304 131.472 74.186L131.456 74.1925L131.439 74.1987C130.657 74.4993 129.84 74.7628 128.991 74.9903C128.583 75.0997 128.217 75.1888 127.904 75.2515C127.627 75.3071 127.266 75.3686 126.923 75.3655L126.854 75.3649L126.786 75.3596C126.641 75.3483 126.469 75.3245 126.284 75.2755C126.234 75.3111 126.188 75.3412 126.149 75.3659C125.823 75.5741 125.424 75.7542 125.039 75.9098L125.024 75.9156L125.01 75.9211C124.238 76.2193 123.426 76.4814 122.578 76.7088C122.169 76.8182 121.803 76.9073 121.49 76.9701C121.213 77.0257 120.853 77.0872 120.509 77.084L120.458 77.0836L120.407 77.0805C120.091 77.0615 119.632 76.9864 119.18 76.7087C119.055 76.632 118.939 76.5446 118.832 76.4478C118.314 77.0902 117.617 77.6165 116.862 78.0612L116.851 78.0676L116.84 78.0739C115.998 78.5562 114.951 78.9387 113.771 79.255C112.581 79.5736 111.407 79.7821 110.249 79.8746C109.19 79.9591 108.187 79.9718 107.399 79.8007C107.294 79.778 107.183 79.7508 107.067 79.7175L107.043 79.7476C106.601 80.3019 105.998 80.7165 105.42 81.0375C104.325 81.6449 103.197 82.1088 102.037 82.4197C100.968 82.7061 99.9656 82.8855 99.0544 82.9174L99.0458 82.9177C98.2332 82.9427 97.4502 82.8907 96.7357 82.7177L96.7003 82.7092L96.6652 82.6993C96.3288 82.6047 96.0022 82.4869 95.686 82.3457C95.5779 82.8209 95.3233 83.1567 95.1995 83.2998C94.968 83.5674 94.7091 83.742 94.5567 83.837C94.2276 84.0424 93.8229 84.2229 93.4261 84.3813L93.4122 84.3869L93.3981 84.3922C92.6048 84.6953 91.7832 84.9602 90.9343 85.1876C90.5266 85.2969 90.1623 85.3856 89.8532 85.447C89.5945 85.4984 89.2102 85.5661 88.8404 85.5509L88.7845 85.5486L88.7289 85.5432C88.6134 85.532 88.4832 85.5124 88.3443 85.4789C88.3254 85.4912 88.3077 85.5025 88.2912 85.5129C87.9633 85.7197 87.5616 85.8999 87.1707 86.057L87.1548 86.0633L87.1389 86.0694C86.3456 86.3724 85.524 86.6373 84.675 86.8648C84.2614 86.9756 83.8928 87.0655 83.5812 87.1277C83.3216 87.1795 82.9337 87.2485 82.5619 87.2332L82.506 87.231L82.4504 87.2255C82.1178 87.1932 81.6634 87.0915 81.2278 86.7876C80.7541 86.4572 80.443 85.9843 80.3047 85.4683L79.9642 84.1974C79.9522 84.5301 79.8586 84.8147 79.7475 85.0399L79.8919 85.5789C80.171 86.6206 79.5787 87.3576 79.3947 87.5608C79.1609 87.8188 78.9017 87.988 78.7481 88.0809C78.4147 88.2827 78.0011 88.464 77.5866 88.6268L77.5732 88.6321L77.5598 88.6372C76.733 88.9482 75.8889 89.219 75.028 89.4497C74.614 89.5606 74.2446 89.6507 73.931 89.7135C73.6611 89.7676 73.2866 89.8331 72.9292 89.8244L72.8564 89.8227L72.784 89.8156C72.4515 89.7833 71.9971 89.6816 71.5614 89.3777C71.0877 89.0473 70.7766 88.5744 70.6384 88.0584L70.0752 85.9569C70.0911 86.084 70.1025 86.2099 70.1088 86.3339C70.1233 86.619 70.1192 87.0283 69.9947 87.4643C70.0534 87.7588 70.0944 88.0511 70.1088 88.3339C70.1305 88.7611 70.1106 89.4674 69.706 90.1241C69.333 90.7296 68.776 91.0706 68.3984 91.2607C67.9812 91.4706 67.5074 91.6305 67.0248 91.7598C66.1327 91.9989 65.3039 92.1622 64.565 92.2167L64.5422 92.2184L64.5193 92.2195C63.6854 92.2619 62.8641 92.142 62.0672 91.8778L62.0584 91.8749L62.0496 91.8719C61.3351 91.6277 60.7394 91.2275 60.2415 90.7207C60.0452 91.3365 59.7262 91.9239 59.2718 92.4671C58.1584 93.7981 56.4303 94.6193 54.4666 95.1455C52.2761 95.7324 50.3371 96.0367 48.8255 95.8359L48.8085 95.8336L48.7915 95.8311C48.7165 95.8198 48.6384 95.8068 48.5581 95.7917C48.3285 96.0599 48.0718 96.2349 47.9208 96.3302C47.5929 96.5369 47.1912 96.7172 46.8002 96.8742L46.7861 96.8799L46.7719 96.8853C45.9892 97.1859 45.1728 97.4494 44.324 97.6768C43.9156 97.7862 43.5497 97.8753 43.2366 97.9381C42.9591 97.9937 42.5988 98.0552 42.2553 98.0521L42.1869 98.0514L42.1188 98.0461C42.0158 98.0382 41.8994 98.0238 41.7742 97.9987C41.5313 98.2716 41.1903 98.5165 40.7124 98.6445L33.6226 100.544C33.0147 100.707 32.3039 100.876 31.7362 100.862L31.683 100.861L31.6299 100.857C31.3057 100.831 30.8487 100.744 30.4037 100.453C29.9118 100.131 29.5731 99.6499 29.4261 99.1012L29.2817 98.5624C29.0107 98.8763 28.6138 99.1946 28.0533 99.3448L27.7977 99.4133L27.7978 99.6682C27.7914 101.103 26.6924 101.908 26.0989 102.257C25.3935 102.672 24.4792 102.994 23.4716 103.264C22.8548 103.429 22.0038 103.461 21.2248 102.956C20.8739 103.385 20.4474 103.676 20.1488 103.852C19.4434 104.267 18.5291 104.589 17.5215 104.859C16.8589 105.036 15.9262 105.06 15.1027 104.429L15.0357 104.378L14.9732 104.321C14.5574 103.943 14.2242 103.449 14.0625 102.845C14.0393 102.759 14.0206 102.667 14.0052 102.574C13.4859 102.334 13.1416 101.948 13.0019 101.776L12.9895 101.76L12.9774 101.745C12.573 101.224 12.3435 100.603 12.1963 100.053C12.0032 99.3326 12.0129 98.6114 12.1633 97.9215C11.9702 97.0967 12.038 96.2734 12.2734 95.5C12.108 95.1584 11.9912 94.806 11.9036 94.4789C11.7106 93.7584 11.7202 93.0372 11.8706 92.3474C11.6769 91.5195 11.7458 90.6932 11.9833 89.9174C12.0965 89.5363 12.266 89.1044 12.5415 88.7119C12.8161 88.3207 13.2656 87.8758 13.939 87.6698L13.9407 87.577C13.9578 86.2926 14.7664 85.431 15.4918 84.9358C16.2132 84.4433 17.1363 84.099 18.1184 83.8359C18.6092 83.7043 19.3358 83.5864 20.084 83.8432C20.2744 83.9085 20.4491 83.9919 20.6083 84.09C20.8644 83.7827 21.1594 83.5343 21.4419 83.3415C22.1633 82.849 23.0864 82.5047 24.0685 82.2415C24.5593 82.11 25.2859 81.9921 26.0341 82.2489C26.3465 82.3561 26.6167 82.5117 26.8453 82.7015C27.151 82.3509 27.5244 82.0534 27.8794 81.8049C28.773 81.1636 29.7968 80.7066 30.916 80.4068C31.8361 80.1602 33.2872 79.9432 34.4404 80.8595L34.4614 80.8762L34.4819 80.8935C34.8505 81.2029 35.2045 81.6524 35.3668 82.2579L37.1123 88.7723C37.3703 88.6908 37.613 88.6158 37.8402 88.5475L37.4562 87.1144C37.2917 86.5005 37.3979 85.9628 37.5724 85.5479L37.4962 85.2637C36.954 84.7916 36.5822 84.1616 36.3902 83.4453C36.2116 82.7787 36.2044 82.0974 36.3931 81.4561C36.3922 81.4525 36.3912 81.4489 36.3902 81.4453C36.0776 80.2785 36.29 79.0666 37.1595 78.1035C37.9094 77.2729 38.9821 76.8168 40.0238 76.5376C41.0196 76.2708 42.0754 76.1411 43.0686 76.3702C43.7067 76.507 44.3002 76.8186 44.776 77.3202C45.2436 77.813 45.5125 78.3984 45.6631 78.9606C45.7959 79.456 45.8334 79.9587 45.7668 80.4465C46.2518 79.8253 46.93 79.3029 47.6444 78.8534L47.653 78.848C48.5095 78.3152 49.4729 77.9191 50.5187 77.6389C51.4365 77.393 52.2533 77.209 52.9545 77.0992C53.6051 76.9837 54.2177 76.907 54.7436 76.9067C55.1023 76.9041 55.4689 76.9229 55.8255 76.9797C55.854 76.7474 55.9128 76.5282 55.9917 76.3253L55.8966 75.9701C55.6508 75.0531 55.9432 74.2423 56.3389 73.6812C56.7021 73.1662 57.1973 72.781 57.652 72.4905L57.66 72.4855C58.5333 71.9334 59.4511 71.5185 60.4116 71.2611C61.0947 71.0781 61.9124 70.9386 62.6983 71.0959C63.1218 71.1806 63.599 71.3643 64.021 71.7313C64.2438 71.9251 64.4224 72.1451 64.5611 72.3792C64.7887 71.8666 65.2621 71.2244 66.1447 70.988L76.596 68.1875C76.7531 68.1454 76.9075 68.1211 77.058 68.1122C77.1342 67.9929 77.2084 67.895 77.2684 67.8211C77.5915 67.4235 78.0111 67.0881 78.408 66.8111C79.28 66.2027 80.2429 65.761 81.2829 65.4823C81.8147 65.3398 82.3819 65.2386 82.9391 65.2521C83.4856 65.2653 84.2007 65.3952 84.8228 65.8965C85.2213 66.2141 85.5544 66.6642 85.7078 67.2368L85.988 68.2826C86.3618 68.1115 86.7527 67.9714 87.1592 67.8625C88.7871 67.4263 90.5834 67.5372 91.9045 68.9213C91.9149 68.932 91.9254 68.9428 91.9358 68.9536C91.9506 68.9691 91.9653 68.9847 91.98 69.0004C92.1449 68.6954 92.3394 68.4017 92.5658 68.121C93.2194 67.2967 94.0182 66.6289 94.946 66.1237C95.8199 65.6479 96.8349 65.2699 97.959 64.9687C99.7527 64.4881 101.522 64.3367 103.048 64.8869L103.058 64.8902C103.147 63.9666 103.449 63.0775 104.019 62.2649C105.062 60.7784 106.762 59.8975 108.691 59.3806C110.039 59.0196 111.279 58.781 112.4 58.6865C113.367 58.5933 114.338 58.5627 115.113 58.7447C115.429 58.8116 115.818 58.9241 116.188 59.1378C116.562 59.3534 117.086 59.7768 117.315 60.5075C118.175 59.9156 119.122 59.4845 120.144 59.2107C120.702 59.061 121.394 58.9554 122.098 59.1076C122.178 59.125 122.257 59.1455 122.335 59.1692C122.6 58.9206 122.891 58.6946 123.205 58.4911L123.216 58.4844L123.226 58.4778C123.762 58.1397 124.349 57.8974 124.965 57.7324C126.618 57.2896 128.461 57.3499 129.83 58.7142C129.874 58.7574 129.918 58.8016 129.961 58.8469C130.129 58.5321 130.328 58.2292 130.561 57.9402C131.215 57.1158 132.014 56.4481 132.942 55.9428C133.815 55.467 134.83 55.089 135.955 54.7878C137.295 54.4286 138.623 54.2533 139.845 54.4174C139.863 54.1106 139.94 53.835 140.039 53.599L139.923 53.1655C139.647 52.1347 140.134 51.3189 140.425 50.9382C140.744 50.523 141.161 50.1791 141.551 49.9002L141.56 49.8934C142.428 49.281 143.396 48.8393 144.444 48.5582C145.136 48.373 145.962 48.2332 146.756 48.3957C147.183 48.4832 147.661 48.6711 148.083 49.0412C148.515 49.4212 148.779 49.8987 148.909 50.3848L149.144 51.2611C150.095 51.0505 151.166 51.0046 152.308 51.0689C152.967 51.1061 153.653 51.2003 154.254 51.4333C154.834 51.6581 155.726 52.1774 156.022 53.2828C156.177 53.8609 156.111 54.4536 156.056 54.8239C156.039 54.9401 156.018 55.0606 155.994 55.185C156.003 55.217 156.013 55.2496 156.022 55.2828C156.177 55.8609 156.111 56.4536 156.056 56.8239C156 57.2017 155.906 57.6249 155.785 58.0803C156.18 58.3793 156.527 58.6528 156.823 58.9C157.169 59.1889 157.484 59.4724 157.736 59.7411C157.862 59.8756 157.999 60.0341 158.122 60.2109C158.231 60.3672 158.41 60.649 158.51 61.0226C158.68 61.6566 158.567 62.2261 158.386 62.673ZM67.89 82.2547C67.9712 82.2786 68.0532 82.3075 68.1356 82.342C68.7438 82.5963 69.1215 83.0474 69.3368 83.4483C69.3901 83.5474 69.4398 83.6516 69.4864 83.7592L68.9301 81.6833L68.1767 81.8852C68.1222 81.8998 68.0684 81.9121 68.0154 81.9223C67.9813 82.0305 67.94 82.1422 67.89 82.2547Z" fill="#151515"/>
<path fill-rule="evenodd" clip-rule="evenodd" d="M58.7711 50.0426L61.3231 59.5666C61.361 59.7083 61.0186 59.9243 60.2958 60.2146C59.5824 60.4886 58.8329 60.7308 58.0472 60.9413C57.2745 61.1484 56.7636 61.2508 56.5145 61.2485C56.2749 61.2299 56.1326 61.1369 56.0877 60.9694L53.629 51.7931C53.553 51.5098 53.8395 51.1363 54.4882 50.6726C55.1464 50.1925 55.9069 49.8369 56.7698 49.6057C57.9418 49.2917 58.6089 49.4373 58.7711 50.0426ZM54.7824 45.6658C55.6324 45.4381 56.3302 45.3891 56.8757 45.519C57.4307 45.6326 57.7962 46.0178 57.9722 46.6746C58.2828 47.8337 57.5365 48.6549 55.7335 49.138C53.9304 49.6211 52.8736 49.2831 52.563 48.124C52.2524 46.9649 52.9922 46.1455 54.7824 45.6658ZM99.0101 50.131C99.8343 49.9101 100.333 49.6592 100.506 49.3781C100.679 49.0971 100.65 48.5251 100.419 47.6622C100.302 47.2243 100.188 46.9028 100.078 46.6976C99.9677 46.4925 99.7967 46.421 99.5648 46.4831C99.3459 46.5418 99.0693 46.54 98.7352 46.4777C98.3975 46.4025 98.1821 46.191 98.089 45.8433L97.1417 42.308L98.2815 42.0026C98.5133 41.9405 98.6466 41.6908 98.6812 41.2536C98.7254 40.8001 98.6629 40.2578 98.4938 39.6267C98.235 38.6608 97.9381 38.2227 97.6033 38.3124L96.1737 38.6955L95.4231 35.8943C95.2678 35.3147 94.6042 35.182 93.4322 35.496C92.6852 35.6961 91.9517 36.0238 91.2316 36.479C90.5245 36.9308 90.2244 37.3563 90.3314 37.7555L90.9577 40.0931L90.3395 40.2587C90.0819 40.3277 89.9229 40.5843 89.8625 41.0284C89.8114 41.4562 89.8549 41.9277 89.993 42.4428C90.131 42.958 90.2912 43.3499 90.4736 43.6185C90.6561 43.8871 90.8181 44.0024 90.9598 43.9645L91.9257 43.7056L92.7332 46.7193C93.2681 48.7156 94.0902 49.9033 95.1994 50.2824C95.7751 50.4733 96.3489 50.5542 96.9209 50.5251C97.4894 50.4832 98.1858 50.3519 99.0101 50.131ZM105.718 48.0853C106.458 48.0663 107.311 47.9275 108.277 47.6686C110.144 47.1683 111.501 46.2803 112.346 45.0047C113.188 43.7162 113.347 42.0932 112.822 40.1356C112.563 39.1697 112.231 38.3683 111.826 37.7315C111.417 37.0818 110.986 36.6039 110.531 36.2979C110.089 35.9883 109.554 35.7936 108.925 35.7136C108.309 35.6302 107.722 35.6287 107.164 35.7093C106.602 35.7769 105.941 35.9126 105.182 36.1162C103.404 36.5924 102.066 37.3928 101.166 38.5172C100.206 39.7268 100.003 41.3619 100.555 43.4226C101.176 45.7408 102.187 47.1679 103.586 47.7039C104.267 47.9771 104.977 48.1042 105.718 48.0853ZM107.084 44.8409C106.97 44.7749 106.806 44.5222 106.591 44.0827C106.377 43.6432 106.154 42.992 105.923 42.1291C105.692 41.2662 105.559 40.5909 105.525 40.1031C105.488 39.6024 105.508 39.2932 105.587 39.1754C105.663 39.0448 105.778 38.9588 105.932 38.9174C106.1 38.8725 106.264 38.9183 106.424 39.0546C106.533 39.1498 106.634 39.2953 106.728 39.491C106.834 39.6833 106.952 39.9691 107.082 40.3486C107.22 40.7117 107.385 41.2475 107.574 41.9558C107.761 42.6513 107.871 43.2429 107.905 43.7307C107.952 44.2151 107.936 44.5161 107.857 44.6339C107.791 44.7482 107.675 44.8278 107.507 44.8726C107.353 44.9141 107.212 44.9035 107.084 44.8409ZM85.5535 46.6968L87.1478 52.6469C87.1858 52.7886 86.8498 53.0028 86.1399 53.2897C85.4265 53.5637 84.6769 53.8059 83.8913 54.0164C83.1186 54.2235 82.6077 54.3259 82.3586 54.3236C82.1189 54.305 81.9767 54.212 81.9318 54.0445L80.2857 47.9012C80.1305 47.3217 80.0029 46.9487 79.9031 46.7822C79.8161 46.6122 79.7343 46.4616 79.6577 46.3302C79.502 46.1097 79.3083 46.0305 79.0764 46.0926C78.7158 46.1892 78.5821 46.4114 78.6753 46.7591L80.7148 54.3706C80.7527 54.5123 80.4167 54.7266 79.7068 55.0134C79.0063 55.284 78.2632 55.5245 77.4776 55.735C76.7048 55.942 76.1939 56.0444 75.9449 56.0421C75.6923 56.027 75.5436 55.9357 75.4988 55.7683L72.9468 46.2442C72.8744 45.9738 73.1689 45.605 73.8306 45.1378C74.5051 44.6672 75.2545 44.3215 76.0787 44.1006C76.903 43.8797 77.4305 43.9938 77.6612 44.4427L78.0628 45.2461L78.198 45.2099C78.3714 44.3628 78.8756 43.6687 79.7106 43.1274C80.053 42.9114 80.4496 42.7431 80.9004 42.6223C82.2012 42.2737 83.1822 42.4319 83.8435 43.0967C84.5142 43.7452 85.0842 44.9453 85.5535 46.6968ZM68.6991 55.5197L68.9994 56.6401C69.0891 56.975 69.0452 57.249 68.8677 57.4622C68.703 57.672 68.3116 57.8597 67.6934 58.0254C67.0881 58.1875 66.2615 58.271 65.2137 58.2757C64.8804 58.2683 64.6881 58.2716 64.6365 58.2854C64.4176 58.344 64.2777 58.7749 64.2168 59.5781C64.1688 60.3777 64.1862 60.9321 64.269 61.2412C64.3208 61.4344 64.5318 61.578 64.9021 61.672C65.7432 61.8746 67.1812 61.7032 69.2161 61.158C71.135 60.6438 72.4834 59.8546 73.2611 58.7904C74.0388 57.7262 74.2241 56.4342 73.8169 54.9145L71.648 46.82C71.5755 46.5496 71.5092 46.3534 71.4489 46.2315C71.3852 46.0967 71.2811 45.9659 71.1366 45.8389C70.8873 45.6297 70.3377 45.6389 69.4876 45.8667C67.5815 46.3774 66.6366 46.9205 66.6527 47.4959L66.6807 48.2959L66.5262 48.3373L66.4603 48.1686C66.3363 47.912 66.0457 47.6517 65.5884 47.3877C65.3633 47.2686 65.0549 47.1994 64.6632 47.1801C64.2681 47.1479 63.7936 47.206 63.2398 47.3544C62.686 47.5028 62.1955 47.7585 61.7682 48.1214C61.3503 48.4681 61.0622 48.8352 60.9038 49.2227C60.4866 50.1903 60.4782 51.4211 60.8785 52.915C61.2271 54.2158 61.6126 55.2168 62.0352 55.918C62.308 56.3694 62.6064 56.7105 62.9305 56.9411C63.2511 57.1589 63.6562 57.3057 64.1459 57.3816C64.6355 57.4574 65.1959 57.4108 65.827 57.2417C66.4709 57.0692 67.0216 56.8319 67.479 56.5299C67.9493 56.2244 68.2368 56.0093 68.3414 55.8847C68.4426 55.7471 68.5103 55.6393 68.5446 55.5611L68.6991 55.5197ZM67.8807 54.1653C67.8182 54.2925 67.7161 54.3751 67.5744 54.4131C67.3683 54.4683 67.1405 54.2878 66.891 53.8715C66.6543 53.4518 66.4358 52.8684 66.2357 52.1215C65.8043 50.5116 65.8333 49.6411 66.3227 49.5099C66.5546 49.4478 66.7325 49.5451 66.8565 49.8018L67.9228 53.7814C67.9573 53.9102 67.9433 54.0382 67.8807 54.1653ZM51.7757 62.5182C52.4194 62.1387 52.8965 61.7555 53.207 61.3686C53.5174 60.9818 53.7432 60.5624 53.8844 60.1104C54.1146 59.3724 54.1261 58.617 53.919 57.8442C53.7223 57.1101 53.4081 56.5041 52.9764 56.0263C52.5447 55.5484 52.0766 55.2183 51.5722 55.0359C51.0644 54.8407 50.53 54.7009 49.9691 54.6166C49.4176 54.5159 48.9155 54.471 48.4629 54.4818C48.0197 54.4763 47.6392 54.4472 47.3213 54.3943C47 54.3286 46.8118 54.1926 46.7566 53.9866C46.6979 53.7676 46.7514 53.5808 46.9169 53.426C47.0954 53.2677 47.4615 53.1144 48.0153 52.966C48.582 52.8142 49.3404 52.8111 50.2905 52.9569C50.6049 52.9968 50.7878 53.0099 50.8393 52.9961C51.1355 52.9168 51.3347 52.4493 51.4367 51.5937C51.5516 50.7347 51.5194 49.9704 51.3399 49.3007C51.2882 49.1075 51.0432 48.966 50.6051 48.8764C50.1764 48.7704 49.4777 48.7644 48.509 48.8583C47.5368 48.9393 46.4132 49.1507 45.1382 49.4923C41.7253 50.4068 40.4019 52.2936 41.168 55.1528C41.3474 55.8225 41.6495 56.3834 42.0744 56.8355C42.4957 57.2747 42.9569 57.5791 43.4578 57.7485C43.9587 57.918 44.485 58.0531 45.0365 58.1538C45.6009 58.251 46.1129 58.3071 46.5724 58.322C47.0284 58.324 47.4206 58.3708 47.7488 58.4623C48.0735 58.5409 48.2635 58.6833 48.3187 58.8893C48.3739 59.0954 48.3398 59.2771 48.2163 59.4344C48.0894 59.5788 47.7683 59.7201 47.2531 59.8581C46.738 59.9962 45.9251 60.0276 44.8145 59.9525C43.7039 59.8774 43.1228 59.8468 43.0713 59.8606C42.7879 59.9365 42.6485 60.3949 42.6529 61.2357C42.6539 62.0636 42.751 62.8382 42.9443 63.5595C42.9995 63.7655 43.269 63.9211 43.7526 64.0261C44.2363 64.1312 44.9917 64.1428 46.0188 64.0608C47.0459 63.9788 48.1004 63.7929 49.1823 63.503C50.277 63.2097 51.1415 62.8814 51.7757 62.5182ZM150.652 64.6186C150.69 64.7603 150.361 64.9728 149.664 65.2562C148.963 65.5268 148.22 65.7673 147.434 65.9778C146.649 66.1883 146.132 66.2924 145.882 66.2901C145.63 66.275 145.481 66.1837 145.436 66.0162L141.854 52.6478C141.778 52.3645 142.065 51.991 142.714 51.5273C143.375 51.0601 144.125 50.7144 144.962 50.4901C146.147 50.1726 146.818 50.31 146.977 50.9025L148.913 58.1276L149.164 58.0603C148.992 54.9454 149.054 53.3482 149.35 53.2688C150.097 53.0687 151.046 53.001 152.195 53.0658C153.344 53.1305 153.976 53.3754 154.09 53.8004C154.172 54.1095 154.073 54.7709 153.793 55.7848C153.512 56.7986 153.17 57.6566 152.764 58.3588C155.196 60.0676 156.467 61.1281 156.577 61.5402C156.681 61.9266 156.221 62.5537 155.197 63.4215C154.174 64.2893 153.424 64.7871 152.947 64.9148C152.715 64.9769 152.396 64.7656 151.991 64.2808C151.581 63.7831 151.078 63.0137 150.482 61.9726L150.14 62.7061L150.652 64.6186ZM138.649 64.9984C137.85 65.2123 137.339 64.9007 137.114 64.0636L137.752 63.8928C141.41 62.9127 142.916 61.2185 142.27 58.8101C141.663 56.5434 139.73 55.8466 136.472 56.7197C135.454 56.9923 134.596 57.3188 133.898 57.6993C133.199 58.0798 132.607 58.5765 132.123 59.1894C131.137 60.4059 130.959 62.1861 131.587 64.5301C131.749 65.1354 131.97 65.7042 132.251 66.2363C132.445 66.5986 132.662 66.92 132.903 67.2005C133.14 67.4682 133.46 67.7345 133.862 67.9994C134.277 68.2609 134.724 68.4587 135.202 68.593C135.689 68.7109 136.281 68.7592 136.98 68.7377C137.691 68.7128 138.536 68.5693 139.515 68.307C140.506 68.0413 141.483 67.6416 142.444 67.1079C143.405 66.5743 143.819 66.0563 143.684 65.554C143.591 65.2063 143.246 64.7189 142.65 64.0917C142.054 63.4646 141.634 63.1838 141.389 63.2494C141.351 63.2598 141.001 63.526 140.34 64.0481C139.676 64.5574 139.112 64.8741 138.649 64.9984ZM136.662 62.5285L136.32 61.2534C136.068 60.3133 136.168 59.7828 136.618 59.662C137.018 59.555 137.321 59.8879 137.528 60.6606C137.642 61.0857 137.616 61.4791 137.451 61.8408C137.298 62.1992 137.035 62.4284 136.662 62.5285ZM130.136 63.7388L131.73 69.6889C131.768 69.8306 131.432 70.0448 130.722 70.3317C130.008 70.6057 129.259 70.8479 128.473 71.0584C127.701 71.2655 127.19 71.3678 126.941 71.3656C126.701 71.347 126.559 71.2539 126.514 71.0865L124.868 64.9432C124.713 64.3637 124.585 63.9906 124.485 63.8241C124.398 63.6542 124.316 63.5035 124.24 63.3722C124.084 63.1517 123.89 63.0725 123.658 63.1346C123.298 63.2312 123.164 63.4534 123.257 63.8011L125.297 71.4126C125.335 71.5543 124.999 71.7686 124.289 72.0554C123.588 72.3259 122.845 72.5665 122.06 72.777C121.287 72.984 120.776 73.0864 120.527 73.0841C120.274 73.069 120.126 72.9777 120.081 72.8102L117.529 63.2862C117.456 63.0158 117.751 62.6469 118.413 62.1798C119.087 61.7092 119.837 61.3634 120.661 61.1426C121.485 60.9217 122.013 61.0357 122.243 61.4847L122.645 62.2881L122.78 62.2519C122.953 61.4048 123.458 60.7107 124.293 60.1694C124.635 59.9534 125.032 59.785 125.482 59.6643C126.783 59.3157 127.764 59.4739 128.426 60.1387C129.096 60.7872 129.666 61.9872 130.136 63.7388ZM115.846 74.3383C116.49 73.9588 116.967 73.5756 117.277 73.1887C117.588 72.8019 117.814 72.3825 117.955 71.9305C118.185 71.1925 118.196 70.4371 117.989 69.6643C117.793 68.9302 117.478 68.3243 117.047 67.8464C116.615 67.3685 116.147 67.0384 115.643 66.8561C115.135 66.6608 114.6 66.5211 114.039 66.4367C113.488 66.336 112.986 66.2911 112.533 66.3019C112.09 66.2965 111.71 66.2673 111.392 66.2144C111.07 66.1487 110.882 66.0128 110.827 65.8067C110.768 65.5877 110.822 65.4009 110.987 65.2461C111.166 65.0878 111.532 64.9345 112.086 64.7861C112.652 64.6343 113.411 64.6312 114.361 64.777C114.675 64.8169 114.858 64.83 114.91 64.8162C115.206 64.7369 115.405 64.2694 115.507 63.4138C115.622 62.5548 115.59 61.7905 115.41 61.1208C115.359 60.9276 115.114 60.7862 114.675 60.6965C114.247 60.5905 113.548 60.5845 112.579 60.6784C111.607 60.7594 110.484 60.9708 109.209 61.3124C105.796 62.2269 104.472 64.1137 105.238 66.9729C105.418 67.6426 105.72 68.2035 106.145 68.6556C106.566 69.0948 107.027 69.3992 107.528 69.5686C108.029 69.7381 108.555 69.8732 109.107 69.9739C109.671 70.0711 110.183 70.1272 110.643 70.1421C111.099 70.1441 111.491 70.1909 111.819 70.2824C112.144 70.361 112.334 70.5034 112.389 70.7094C112.444 70.9155 112.41 71.0972 112.287 71.2545C112.16 71.399 111.839 71.5402 111.324 71.6782C110.808 71.8163 109.995 71.8477 108.885 71.7726C107.774 71.6975 107.193 71.6669 107.142 71.6807C106.858 71.7566 106.719 72.215 106.723 73.0558C106.724 73.8837 106.821 74.6583 107.015 75.3796C107.07 75.5856 107.339 75.7412 107.823 75.8463C108.307 75.9513 109.062 75.9629 110.089 75.8809C111.116 75.7989 112.171 75.613 113.253 75.3231C114.347 75.0298 115.212 74.7015 115.846 74.3383ZM99.1189 74.2445C99.3432 75.0816 99.8546 75.3932 100.653 75.1792C101.117 75.055 101.681 74.7383 102.345 74.229C103.005 73.7069 103.355 73.4406 103.394 73.4303C103.639 73.3647 104.059 73.6455 104.655 74.2726C105.251 74.8998 105.595 75.3872 105.688 75.7349C105.823 76.2372 105.41 76.7552 104.448 77.2888C103.487 77.8225 102.511 78.2222 101.519 78.4879C100.54 78.7501 99.6952 78.8937 98.984 78.9186C98.2858 78.9401 97.6931 78.8918 97.206 78.7739C96.7283 78.6396 96.2819 78.4418 95.8667 78.1803C95.4644 77.9154 95.1446 77.6491 94.9072 77.3814C94.6664 77.1008 94.4492 76.7794 94.2555 76.4172C93.9749 75.8851 93.7535 75.3163 93.5913 74.711C92.9632 72.367 93.1419 70.5868 94.1273 69.3703C94.6118 68.7574 95.2034 68.2606 95.902 67.8802C96.6007 67.4997 97.4588 67.1732 98.4762 66.9006C101.735 66.0275 103.667 66.7243 104.275 68.991C104.92 71.3994 103.414 73.0936 99.7564 74.0737L99.1189 74.2445ZM98.3245 71.4343L98.6661 72.7093C99.0396 72.6093 99.3026 72.3801 99.455 72.0217C99.6204 71.6599 99.6461 71.2665 99.5322 70.8415C99.3251 70.0688 99.022 69.7359 98.6227 69.8429C98.172 69.9637 98.0726 70.4941 98.3245 71.4343ZM87.0756 75.8978L88.5147 81.2684C88.5595 81.4358 88.6953 81.5305 88.9221 81.5526C89.1454 81.5618 89.6435 81.4628 90.4162 81.2558C91.2018 81.0453 91.9578 80.8013 92.684 80.5239C93.4197 80.2301 93.7686 80.0124 93.7307 79.8708L92.1363 73.9206C91.667 72.1691 91.1099 70.9656 90.4649 70.3102C89.8294 69.6385 88.8999 69.4665 87.6764 69.7944C86.8264 70.0221 86.0925 70.4258 85.4748 71.0054C85.1437 71.315 84.9242 71.6292 84.8164 71.948L84.6811 71.9842L84.5365 70.5943L83.7755 67.7545C83.7445 67.6386 83.6765 67.5394 83.5716 67.4571C83.2535 67.1973 82.663 67.1829 81.8001 67.4141C80.9759 67.635 80.2265 67.9807 79.552 68.4514C78.8775 68.922 78.5764 69.2925 78.6489 69.563L82.2361 82.9507C82.281 83.1181 82.4168 83.2129 82.6436 83.2349C82.8669 83.2441 83.3714 83.1434 84.157 82.9329C84.9426 82.7224 85.6986 82.4785 86.4249 82.201C87.1477 81.9107 87.4901 81.6947 87.4521 81.5531L85.4127 73.9416C85.3195 73.5938 85.4017 73.3855 85.6593 73.3164C85.9555 73.2371 86.2009 73.406 86.3955 73.8232C86.5901 74.2403 86.8168 74.9319 87.0756 75.8978ZM77.9597 84.0966C77.9976 84.2382 77.6294 84.4611 76.8551 84.7652C76.0902 85.053 75.3085 85.3039 74.51 85.5179C73.7243 85.7284 73.2134 85.8307 72.9772 85.825C72.7505 85.803 72.6147 85.7082 72.5698 85.5408L70.344 77.2338L67.6587 77.9533C67.517 77.9913 67.3463 77.8438 67.1467 77.5108C66.947 77.1778 66.7523 76.6571 66.5625 75.9487C66.3693 75.2275 66.274 74.5629 66.2767 73.9548C66.2759 73.3338 66.4044 72.9888 66.6619 72.9198L77.1133 70.1194C77.3064 70.0676 77.4835 70.2134 77.6446 70.5568C77.8185 70.8967 77.9969 71.4079 78.1798 72.0905C78.3627 72.7731 78.4644 73.436 78.4849 74.0793C78.5054 74.7226 78.3933 75.077 78.1486 75.1426L75.7338 75.7896L77.9597 84.0966ZM66.5067 87.828C67.331 87.6071 67.8297 87.3561 68.0028 87.0751C68.176 86.794 68.147 86.222 67.9158 85.3591C67.7984 84.9213 67.6847 84.5997 67.5745 84.3946C67.4643 84.1895 67.2933 84.118 67.0615 84.1801C66.8426 84.2387 66.566 84.2369 66.2318 84.1746C65.8942 84.0994 65.6788 83.888 65.5856 83.5403L64.6383 80.005L65.7781 79.6996C66.0099 79.6374 66.1432 79.3878 66.1779 78.9506C66.222 78.497 66.1595 77.9547 65.9904 77.3237C65.7316 76.3577 65.4348 75.9196 65.0999 76.0094L63.6703 76.3924L62.9198 73.5912C62.7645 73.0117 62.1008 72.8789 60.9288 73.1929C60.1819 73.3931 59.4483 73.7208 58.7283 74.176C58.0211 74.6277 57.721 75.0532 57.828 75.4525L58.4543 77.79L57.8362 77.9557C57.5786 78.0247 57.4196 78.2813 57.3591 78.7254C57.3081 79.1532 57.3516 79.6246 57.4896 80.1398C57.6277 80.6549 57.7879 81.0468 57.9703 81.3154C58.1527 81.584 58.3147 81.6994 58.4564 81.6614L59.4223 81.4026L60.2298 84.4163C60.7647 86.4125 61.5868 87.6002 62.6961 87.9794C63.2718 88.1702 63.8456 88.2511 64.4176 88.2221C64.9861 88.1802 65.6825 88.0488 66.5067 87.828ZM53.9485 91.2136C51.8106 91.7865 50.1906 91.9997 49.0885 91.8533C48.5275 91.7689 48.2195 91.6237 48.1642 91.4177C48.0228 90.8896 48.0117 90.23 48.131 89.4388C48.2503 88.6477 48.4258 88.221 48.6576 88.1589C48.7864 88.1244 49.2558 88.1505 50.0659 88.2371C50.8888 88.3203 51.5514 88.2946 52.0536 88.16C52.5688 88.022 52.895 87.9 53.0323 87.7942C53.1825 87.685 53.2334 87.5402 53.1851 87.3599C53.1333 87.1667 52.9649 87.0531 52.6797 87.0191C52.391 86.9722 52.0484 86.9812 51.6516 87.0461C51.2549 87.111 50.8156 87.1459 50.3338 87.1507C49.8649 87.1522 49.4131 87.1145 48.9784 87.0377C48.5437 86.9609 48.1423 86.751 47.7743 86.4079C47.4029 86.0519 47.1533 85.6356 47.0256 85.1591C46.8945 84.6697 46.8107 84.3056 46.7744 84.0669C46.7346 83.8153 46.7479 83.4528 46.8143 82.9795C46.8902 82.4899 47.0593 82.065 47.3217 81.7048C47.5969 81.3411 48.0594 80.9549 48.7091 80.5462C49.3716 80.134 50.1472 79.8089 51.0359 79.5707C51.9245 79.3326 52.6737 79.1664 53.2834 79.0721C53.9025 78.9614 54.3916 78.9062 54.7506 78.9067C55.1225 78.9037 55.4334 78.9308 55.6834 78.988C56.1087 79.0811 56.3524 79.2436 56.4145 79.4754C56.5491 79.9777 56.5241 80.6056 56.3394 81.359C56.1548 82.1125 55.953 82.5185 55.7341 82.5772C55.528 82.6324 55.0415 82.6455 54.2745 82.6163C53.504 82.5743 52.9514 82.5981 52.6165 82.6879C52.0756 82.8328 51.8466 83.0598 51.9294 83.3689C51.9811 83.5621 52.2011 83.6619 52.5893 83.6683C52.987 83.6584 53.4572 83.6359 54 83.6009C54.5427 83.5659 55.0976 83.576 55.6645 83.6311C56.2409 83.6699 56.7749 83.8857 57.2667 84.2785C57.7713 84.6678 58.1237 85.236 58.3238 85.983C59.0002 88.5073 57.5418 90.2508 53.9485 91.2136ZM47.0817 92.3703L44.5298 82.8463C44.3676 82.241 43.7005 82.0953 42.5285 82.4093C41.6656 82.6406 40.9051 82.9962 40.2469 83.4762C39.5981 83.9399 39.3117 84.3135 39.3876 84.5968L41.8464 93.7731C41.8913 93.9405 42.0335 94.0335 42.2732 94.0521C42.5223 94.0544 43.0332 93.952 43.8059 93.745C44.5915 93.5345 45.341 93.2922 46.0544 93.0183C46.7773 92.7279 47.1197 92.512 47.0817 92.3703ZM42.6344 78.3227C42.0889 78.1928 41.3911 78.2417 40.5411 78.4695C38.7509 78.9492 38.0111 79.7686 38.3217 80.9277C38.6323 82.0868 39.6891 82.4248 41.4921 81.9416C43.2952 81.4585 44.0414 80.6374 43.7309 79.4783C43.5549 78.8214 43.1894 78.4362 42.6344 78.3227ZM33.1045 96.6124C32.4606 96.785 32.0205 96.8684 31.7843 96.8626C31.5446 96.844 31.4024 96.751 31.3575 96.5836L28.1378 84.5675C28.0619 84.2841 28.3612 83.9071 29.0357 83.4365C29.7068 82.953 30.5059 82.5871 31.4332 82.3386C32.2575 82.1177 32.845 82.1467 33.1957 82.4254C33.3204 82.53 33.4 82.6467 33.4345 82.7755L35.7276 91.3336C37.2713 90.8096 38.4423 90.4406 39.2408 90.2266C39.5113 90.1541 39.7621 90.5494 39.9933 91.4123C40.2211 92.2623 40.3598 93.0119 40.4096 93.6612C40.4593 94.3104 40.3876 94.6609 40.1944 94.7127L33.1045 96.6124ZM16.3179 100.841C16.4916 100.974 16.7201 101.003 17.0034 100.927C18.8966 100.419 19.8446 99.8617 19.8473 99.2536L19.8465 97.4732L21.8556 96.9348C21.8628 97.9406 21.8923 98.54 21.9441 98.7332C21.9958 98.9264 22.1038 99.0976 22.268 99.2469C22.4417 99.3798 22.6702 99.4083 22.9535 99.3324C24.8468 98.8251 25.7947 98.2674 25.7974 97.6593L25.7966 95.8788L27.5352 95.413C27.7799 95.3474 27.9702 95.0272 28.1061 94.4525C28.2385 93.8649 28.2478 93.3585 28.1339 92.9335C27.9096 92.0964 27.63 91.7227 27.2952 91.8124L25.7883 92.2162L25.7937 90.227L27.2426 89.8388C27.4873 89.7732 27.6776 89.4531 27.8134 88.8783C27.9458 88.2907 27.9551 87.7844 27.8412 87.3593C27.6169 86.5222 27.3373 86.1485 27.0025 86.2382L25.8047 86.5592C25.8033 85.3172 25.7922 84.6576 25.7715 84.5804C25.6507 84.1296 25.2554 83.9939 24.5857 84.1734C22.7955 84.6531 21.897 85.2665 21.8902 86.0137C21.8781 86.6382 21.8757 87.1702 21.8831 87.61L19.8546 88.1535C19.8532 86.9116 19.8421 86.252 19.8214 86.1747C19.7006 85.7239 19.3053 85.5883 18.6356 85.7677C16.8454 86.2474 15.9469 86.8608 15.9401 87.6081C15.928 88.2325 15.9256 88.7646 15.933 89.2043L14.5421 89.577C14.2716 89.6495 14.0568 89.9555 13.8977 90.495C13.7351 91.0217 13.7143 91.5105 13.835 91.9612C13.9524 92.3991 14.0953 92.7266 14.2639 92.9437C14.4291 93.1479 14.5825 93.231 14.7242 93.1931L15.9219 92.8721L15.9166 94.8613L14.8347 95.1512C14.5643 95.2236 14.3495 95.5297 14.1904 96.0692C14.0278 96.5959 14.0069 97.0846 14.1277 97.5354C14.2451 97.9733 14.388 98.3008 14.5566 98.5179C14.7218 98.7221 14.8752 98.8052 15.0168 98.7673L15.9055 98.5291C15.9127 99.5349 15.9422 100.134 15.994 100.328C16.0457 100.521 16.1537 100.692 16.3179 100.841ZM19.8382 93.8105L19.8436 91.8213L21.872 91.2778L21.8667 93.267L19.8382 93.8105Z" fill="white"/>
</svg>
